<svg width="20" height="20" viewBox="0 0 20 20" fill="none" xmlns="http://www.w3.org/2000/svg">
<path d="M5 18.3332V3.33317C5 2.89114 5.17559 2.46722 5.48816 2.15466C5.80072 1.8421 6.22464 1.6665 6.66667 1.6665H13.3333C13.7754 1.6665 14.1993 1.8421 14.5118 2.15466C14.8244 2.46722 15 2.89114 15 3.33317V18.3332H5Z" stroke="#99A1AF" stroke-width="1.66667" stroke-linecap="round" stroke-linejoin="round"/>
<path d="M5.00002 10H3.33335C2.89133 10 2.4674 10.1756 2.15484 10.4882C1.84228 10.8007 1.66669 11.2246 1.66669 11.6667V16.6667C1.66669 17.1087 1.84228 17.5326 2.15484 17.8452C2.4674 18.1577 2.89133 18.3333 3.33335 18.3333H5.00002" stroke="#99A1AF" stroke-width="1.66667" stroke-linecap="round" stroke-linejoin="round"/>
<path d="M15 7.5H16.6667C17.1087 7.5 17.5326 7.6756 17.8452 7.98816C18.1577 8.30072 18.3333 8.72464 18.3333 9.16667V16.6667C18.3333 17.1087 18.1577 17.5326 17.8452 17.8452C17.5326 18.1577 17.1087 18.3333 16.6667 18.3333H15" stroke="#99A1AF" stroke-width="1.66667" stroke-linecap="round" stroke-linejoin="round"/>
<path d="M8.33331 5H11.6666" stroke="#99A1AF" stroke-width="1.66667" stroke-linecap="round" stroke-linejoin="round"/>
<path d="M8.33331 8.3335H11.6666" stroke="#99A1AF" stroke-width="1.66667" stroke-linecap="round" stroke-linejoin="round"/>
<path d="M8.33331 11.6665H11.6666" stroke="#99A1AF" stroke-width="1.66667" stroke-linecap="round" stroke-linejoin="round"/>
<path d="M8.33331 15H11.6666" stroke="#99A1AF" stroke-width="1.66667" stroke-linecap="round" stroke-linejoin="round"/>
</svg>
