<svg width="11" height="11" viewBox="0 0 11 11" fill="none" xmlns="http://www.w3.org/2000/svg">
<path d="M5.25999 0.647107C5.28189 0.602866 5.31572 0.565626 5.35766 0.539589C5.39959 0.513553 5.44798 0.499756 5.49734 0.499756C5.5467 0.499756 5.59508 0.513553 5.63702 0.539589C5.67896 0.565626 5.71279 0.602866 5.73468 0.647107L6.88893 2.98508C6.96497 3.13897 7.07722 3.2721 7.21603 3.37306C7.35485 3.47401 7.51609 3.53978 7.68591 3.56471L10.2672 3.94246C10.3161 3.94955 10.3621 3.97018 10.3999 4.00202C10.4377 4.03386 10.4658 4.07565 10.4811 4.12265C10.4964 4.16964 10.4982 4.21998 10.4864 4.26797C10.4745 4.31595 10.4495 4.35966 10.4141 4.39417L8.54735 6.21198C8.42424 6.33195 8.33213 6.48005 8.27894 6.64351C8.22576 6.80698 8.2131 6.98093 8.24205 7.15037L8.68276 9.7187C8.6914 9.76758 8.68612 9.81791 8.66752 9.86394C8.64893 9.90997 8.61777 9.94985 8.5776 9.97902C8.53744 10.0082 8.48988 10.0255 8.44035 10.0289C8.39083 10.0324 8.34134 10.0218 8.29751 9.99851L5.99002 8.78531C5.83798 8.70547 5.66882 8.66376 5.49709 8.66376C5.32536 8.66376 5.1562 8.70547 5.00416 8.78531L2.69716 9.99851C2.65336 10.0217 2.60392 10.0321 2.55448 10.0286C2.50504 10.0251 2.45758 10.0078 2.41749 9.97864C2.37741 9.94948 2.34631 9.90967 2.32773 9.86371C2.30916 9.81776 2.30385 9.76752 2.31241 9.7187L2.75263 7.15087C2.78171 6.98135 2.76911 6.80729 2.71592 6.64372C2.66273 6.48015 2.57055 6.33198 2.44733 6.21198L0.580542 4.39467C0.544862 4.3602 0.519578 4.31641 0.507571 4.26828C0.495563 4.22016 0.497315 4.16962 0.512626 4.12244C0.527937 4.07526 0.556191 4.03332 0.594172 4.00141C0.632152 3.9695 0.67833 3.9489 0.727446 3.94196L3.30826 3.56471C3.47828 3.53997 3.63974 3.47429 3.77875 3.37332C3.91776 3.27235 4.03015 3.13912 4.10625 2.98508L5.25999 0.647107Z" fill="#F0B100" stroke="#F0B100" stroke-width="0.999349" stroke-linecap="round" stroke-linejoin="round"/>
</svg>
