<svg width="4" height="4" viewBox="0 0 4 4" fill="none" xmlns="http://www.w3.org/2000/svg">
<path d="M1.875 3.75002C1.53125 3.75002 1.21733 3.66622 0.933239 3.4986C0.649148 3.32815 0.421875 3.10087 0.25142 2.81678C0.0838068 2.53269 0 2.21877 0 1.87502C0 1.52843 0.0838068 1.21451 0.25142 0.933261C0.421875 0.64917 0.649148 0.423317 0.933239 0.255704C1.21733 0.0852492 1.53125 2.19345e-05 1.875 2.19345e-05C2.22159 2.19345e-05 2.53551 0.0852492 2.81676 0.255704C3.10085 0.423317 3.3267 0.64917 3.49432 0.933261C3.66477 1.21451 3.75 1.52843 3.75 1.87502C3.75 2.21877 3.66477 2.53269 3.49432 2.81678C3.3267 3.10087 3.10085 3.32815 2.81676 3.4986C2.53551 3.66622 2.22159 3.75002 1.875 3.75002Z" fill="#6A7282"/>
</svg>
