<svg width="24" height="24" viewBox="0 0 24 24" fill="none" xmlns="http://www.w3.org/2000/svg">
<path d="M18.9954 6.99829V3.99902C18.9954 3.73387 18.89 3.47958 18.7025 3.29209C18.515 3.1046 18.2608 2.99927 17.9956 2.99927H4.99878C4.46848 2.99927 3.95989 3.20993 3.58491 3.58491C3.20993 3.95989 2.99927 4.46848 2.99927 4.99878C2.99927 5.52908 3.20993 6.03767 3.58491 6.41265C3.95989 6.78763 4.46848 6.99829 4.99878 6.99829H19.9951C20.2603 6.99829 20.5146 7.10362 20.7021 7.29111C20.8895 7.4786 20.9949 7.7329 20.9949 7.99805V11.9971M20.9949 11.9971H17.9956C17.4653 11.9971 16.9567 12.2077 16.5817 12.5827C16.2068 12.9577 15.9961 13.4663 15.9961 13.9966C15.9961 14.5269 16.2068 15.0355 16.5817 15.4104C16.9567 15.7854 17.4653 15.9961 17.9956 15.9961H20.9949C21.26 15.9961 21.5143 15.8908 21.7018 15.7033C21.8893 15.5158 21.9946 15.2615 21.9946 14.9963V12.9968C21.9946 12.7317 21.8893 12.4774 21.7018 12.2899C21.5143 12.1024 21.26 11.9971 20.9949 11.9971Z" stroke="#9810FA" stroke-width="1.99951" stroke-linecap="round" stroke-linejoin="round"/>
<path d="M2.99927 4.99878V18.9954C2.99927 19.5257 3.20993 20.0342 3.58491 20.4092C3.95989 20.7842 4.46848 20.9949 4.99878 20.9949H19.9951C20.2603 20.9949 20.5146 20.8895 20.7021 20.7021C20.8895 20.5146 20.9949 20.2603 20.9949 19.9951V15.9961" stroke="#9810FA" stroke-width="1.99951" stroke-linecap="round" stroke-linejoin="round"/>
</svg>
