<svg width="24" height="26" viewBox="0 0 24 26" fill="none" xmlns="http://www.w3.org/2000/svg">
<path d="M2.31338 15.0143C2.09487 15.0151 1.88063 14.9538 1.69555 14.8376C1.51048 14.7215 1.36216 14.5552 1.26784 14.3581C1.17352 14.1609 1.13706 13.9411 1.1627 13.7241C1.18835 13.5071 1.27503 13.3018 1.4127 13.1321L12.8444 1.35403C12.9301 1.25505 13.047 1.18817 13.1758 1.16435C13.3046 1.14054 13.4376 1.16121 13.5531 1.22298C13.6686 1.28475 13.7596 1.38394 13.8113 1.50427C13.863 1.62461 13.8722 1.75893 13.8375 1.8852L11.6204 8.8366C11.555 9.01157 11.5331 9.19978 11.5564 9.3851C11.5798 9.57041 11.6477 9.7473 11.7544 9.90059C11.8612 10.0539 12.0035 10.179 12.1692 10.2652C12.3349 10.3514 12.519 10.3961 12.7058 10.3955H20.7888C21.0074 10.3947 21.2216 10.456 21.4067 10.5722C21.5917 10.6883 21.7401 10.8546 21.8344 11.0517C21.9287 11.2489 21.9652 11.4687 21.9395 11.6857C21.9139 11.9027 21.8272 12.108 21.6895 12.2777L10.2578 24.0558C10.1721 24.1547 10.0552 24.2216 9.92645 24.2454C9.79767 24.2693 9.66462 24.2486 9.54915 24.1868C9.43367 24.1251 9.34262 24.0259 9.29094 23.9055C9.23927 23.7852 9.23004 23.6509 9.26477 23.5246L11.4818 16.5732C11.5472 16.3982 11.5692 16.21 11.5458 16.0247C11.5225 15.8394 11.4545 15.6625 11.3478 15.5092C11.241 15.3559 11.0987 15.2308 10.933 15.1446C10.7673 15.0584 10.5832 15.0137 10.3964 15.0143H2.31338Z" stroke="white" stroke-width="2.30943" stroke-linecap="round" stroke-linejoin="round"/>
</svg>
