<svg width="48" height="48" viewBox="0 0 48 48" fill="none" xmlns="http://www.w3.org/2000/svg">
<path d="M19.8739 31C19.6953 30.3079 19.3346 29.6762 18.8291 29.1708C18.3237 28.6653 17.692 28.3046 16.9999 28.126L4.72988 24.962C4.52054 24.9026 4.3363 24.7765 4.2051 24.6029C4.07391 24.4293 4.00293 24.2176 4.00293 24C4.00293 23.7824 4.07391 23.5707 4.2051 23.3971C4.3363 23.2235 4.52054 23.0974 4.72988 23.038L16.9999 19.872C17.6918 19.6936 18.3233 19.3332 18.8287 18.8281C19.3341 18.323 19.695 17.6918 19.8739 17L23.0379 4.73001C23.0967 4.51985 23.2226 4.33469 23.3965 4.2028C23.5704 4.0709 23.7826 3.99951 24.0009 3.99951C24.2191 3.99951 24.4314 4.0709 24.6052 4.2028C24.7791 4.33469 24.9051 4.51985 24.9639 4.73001L28.1259 17C28.3044 17.6922 28.6652 18.3238 29.1706 18.8292C29.6761 19.3347 30.3077 19.6955 30.9999 19.874L43.2699 23.036C43.4809 23.0942 43.667 23.22 43.7996 23.3942C43.9322 23.5683 44.004 23.7811 44.004 24C44.004 24.2189 43.9322 24.4317 43.7996 24.6059C43.667 24.78 43.4809 24.9058 43.2699 24.964L30.9999 28.126C30.3077 28.3046 29.6761 28.6653 29.1706 29.1708C28.6652 29.6762 28.3044 30.3079 28.1259 31L24.9619 43.27C24.9031 43.4802 24.7771 43.6653 24.6032 43.7972C24.4294 43.9291 24.2171 44.0005 23.9989 44.0005C23.7806 44.0005 23.5684 43.9291 23.3945 43.7972C23.2206 43.6653 23.0947 43.4802 23.0359 43.27L19.8739 31Z" stroke="#D08700" stroke-width="4" stroke-linecap="round" stroke-linejoin="round"/>
<path d="M40 6V14" stroke="#D08700" stroke-width="4" stroke-linecap="round" stroke-linejoin="round"/>
<path d="M44 10H36" stroke="#D08700" stroke-width="4" stroke-linecap="round" stroke-linejoin="round"/>
<path d="M8 34V38" stroke="#D08700" stroke-width="4" stroke-linecap="round" stroke-linejoin="round"/>
<path d="M10 36H6" stroke="#D08700" stroke-width="4" stroke-linecap="round" stroke-linejoin="round"/>
</svg>
