<svg width="80" height="80" viewBox="0 0 80 80" fill="none" xmlns="http://www.w3.org/2000/svg">
<path d="M19.3334 37.6667L6.66675 73.3333L42.3334 60.7" stroke="#9810FA" stroke-width="6.66667" stroke-linecap="round" stroke-linejoin="round"/>
<path d="M13.3333 10H13.3666" stroke="#9810FA" stroke-width="6.66667" stroke-linecap="round" stroke-linejoin="round"/>
<path d="M73.3333 26.6667H73.3666" stroke="#9810FA" stroke-width="6.66667" stroke-linecap="round" stroke-linejoin="round"/>
<path d="M50 6.66666H50.0333" stroke="#9810FA" stroke-width="6.66667" stroke-linecap="round" stroke-linejoin="round"/>
<path d="M73.3333 66.6667H73.3666" stroke="#9810FA" stroke-width="6.66667" stroke-linecap="round" stroke-linejoin="round"/>
<path d="M73.3334 6.66666L65.8667 9.16666C63.7414 9.87462 61.9278 11.2988 60.7362 13.1957C59.5445 15.0927 59.0487 17.3446 59.3334 19.5667C59.6667 22.4333 57.4334 25 54.5001 25H53.2334C50.3667 25 47.9001 27 47.3667 29.8L46.6667 33.3333" stroke="#9810FA" stroke-width="6.66667" stroke-linecap="round" stroke-linejoin="round"/>
<path d="M73.3334 43.3333L70.6001 42.2333C67.7334 41.1 64.5334 42.9 64.0001 45.9333C63.6334 48.2667 61.6001 50 59.2334 50H56.6667" stroke="#9810FA" stroke-width="6.66667" stroke-linecap="round" stroke-linejoin="round"/>
<path d="M36.6667 6.66666L37.7667 9.39999C38.9 12.2667 37.1 15.4667 34.0667 16C31.7333 16.3333 30 18.4 30 20.7667V23.3333" stroke="#9810FA" stroke-width="6.66667" stroke-linecap="round" stroke-linejoin="round"/>
<path d="M36.6667 43.3333C43.1001 49.7667 46.1001 57.2333 43.3334 60C40.5667 62.7667 33.1001 59.7667 26.6667 53.3333C20.2334 46.9 17.2334 39.4333 20.0001 36.6667C22.7667 33.9 30.2334 36.9 36.6667 43.3333Z" stroke="#9810FA" stroke-width="6.66667" stroke-linecap="round" stroke-linejoin="round"/>
</svg>
