<svg width="48" height="48" viewBox="0 0 48 48" fill="none" xmlns="http://www.w3.org/2000/svg">
<path d="M11.6 22.6L4 44L25.4 36.42" stroke="#9810FA" stroke-width="4" stroke-linecap="round" stroke-linejoin="round"/>
<path d="M8 6H8.02" stroke="#9810FA" stroke-width="4" stroke-linecap="round" stroke-linejoin="round"/>
<path d="M44 16H44.02" stroke="#9810FA" stroke-width="4" stroke-linecap="round" stroke-linejoin="round"/>
<path d="M30 4H30.02" stroke="#9810FA" stroke-width="4" stroke-linecap="round" stroke-linejoin="round"/>
<path d="M44 40H44.02" stroke="#9810FA" stroke-width="4" stroke-linecap="round" stroke-linejoin="round"/>
<path d="M44 4L39.52 5.5C38.2448 5.92478 37.1567 6.77928 36.4417 7.91745C35.7266 9.05562 35.4291 10.4068 35.6 11.74C35.8 13.46 34.46 15 32.7 15H31.94C30.22 15 28.74 16.2 28.42 17.88L28 20" stroke="#9810FA" stroke-width="4" stroke-linecap="round" stroke-linejoin="round"/>
<path d="M44 26L42.36 25.34C40.64 24.66 38.72 25.74 38.4 27.56C38.18 28.96 36.96 30 35.54 30H34" stroke="#9810FA" stroke-width="4" stroke-linecap="round" stroke-linejoin="round"/>
<path d="M22 4L22.66 5.64C23.34 7.36 22.26 9.28 20.44 9.6C19.04 9.8 18 11.04 18 12.46V14" stroke="#9810FA" stroke-width="4" stroke-linecap="round" stroke-linejoin="round"/>
<path d="M22 26C25.86 29.86 27.66 34.34 26 36C24.34 37.66 19.86 35.86 16 32C12.14 28.14 10.34 23.66 12 22C13.66 20.34 18.14 22.14 22 26Z" stroke="#9810FA" stroke-width="4" stroke-linecap="round" stroke-linejoin="round"/>
</svg>
