<svg width="16" height="16" viewBox="0 0 16 16" fill="none" xmlns="http://www.w3.org/2000/svg">
<g clip-path="url(#clip0_6069_1853)">
<path d="M2.66674 9.33334C2.54059 9.33377 2.4169 9.2984 2.31005 9.23133C2.20319 9.16426 2.11757 9.06824 2.06311 8.95445C2.00865 8.84065 1.9876 8.71373 2.00241 8.58845C2.01721 8.46316 2.06726 8.34465 2.14674 8.24667L8.74674 1.44667C8.79625 1.38953 8.86372 1.35091 8.93806 1.33716C9.01241 1.32341 9.08923 1.33535 9.1559 1.37101C9.22257 1.40667 9.27513 1.46394 9.30497 1.53341C9.3348 1.60289 9.34013 1.68044 9.32008 1.75334L8.04008 5.76667C8.00233 5.86769 7.98966 5.97635 8.00314 6.08334C8.01662 6.19034 8.05585 6.29246 8.11747 6.38096C8.17909 6.46946 8.26126 6.54168 8.35693 6.59145C8.45259 6.64121 8.55891 6.66702 8.66674 6.66667H13.3334C13.4596 6.66624 13.5833 6.70162 13.6901 6.76869C13.797 6.83576 13.8826 6.93177 13.937 7.04557C13.9915 7.15937 14.0125 7.28628 13.9977 7.41157C13.9829 7.53685 13.9329 7.65537 13.8534 7.75334L7.25341 14.5533C7.2039 14.6105 7.13644 14.6491 7.06209 14.6629C6.98774 14.6766 6.91093 14.6647 6.84426 14.629C6.77759 14.5933 6.72502 14.5361 6.69519 14.4666C6.66535 14.3971 6.66002 14.3196 6.68008 14.2467L7.96008 10.2333C7.99782 10.1323 8.0105 10.0237 7.99702 9.91667C7.98354 9.80968 7.9443 9.70755 7.88268 9.61906C7.82106 9.53056 7.73889 9.45833 7.64323 9.40857C7.54756 9.3588 7.44125 9.33299 7.33341 9.33334H2.66674Z" stroke="#155DFC" stroke-width="1.33333" stroke-linecap="round" stroke-linejoin="round"/>
</g>
<defs>
<clipPath id="clip0_6069_1853">
<rect width="16" height="16" fill="white"/>
</clipPath>
</defs>
</svg>
