<svg width="16" height="16" viewBox="0 0 16 16" fill="none" xmlns="http://www.w3.org/2000/svg">
<g clip-path="url(#clip0_6069_1148)">
<path d="M2.66663 1.33331V14.6666L3.99996 14L5.33329 14.6666L6.66663 14L7.99996 14.6666L9.33329 14L10.6666 14.6666L12 14L13.3333 14.6666V1.33331L12 1.99998L10.6666 1.33331L9.33329 1.99998L7.99996 1.33331L6.66663 1.99998L5.33329 1.33331L3.99996 1.99998L2.66663 1.33331Z" stroke="#155DFC" stroke-width="1.33333" stroke-linecap="round" stroke-linejoin="round"/>
<path d="M10.6667 5.33331H6.66671C6.31309 5.33331 5.97395 5.47379 5.7239 5.72384C5.47385 5.97389 5.33337 6.31302 5.33337 6.66665C5.33337 7.02027 5.47385 7.35941 5.7239 7.60946C5.97395 7.8595 6.31309 7.99998 6.66671 7.99998H9.33337C9.687 7.99998 10.0261 8.14046 10.2762 8.3905C10.5262 8.64055 10.6667 8.97969 10.6667 9.33331C10.6667 9.68694 10.5262 10.0261 10.2762 10.2761C10.0261 10.5262 9.687 10.6666 9.33337 10.6666H5.33337" stroke="#155DFC" stroke-width="1.33333" stroke-linecap="round" stroke-linejoin="round"/>
<path d="M8 11.6666V4.33331" stroke="#155DFC" stroke-width="1.33333" stroke-linecap="round" stroke-linejoin="round"/>
</g>
<defs>
<clipPath id="clip0_6069_1148">
<rect width="16" height="16" fill="white"/>
</clipPath>
</defs>
</svg>
