<svg width="16" height="16" viewBox="0 0 16 16" fill="none" xmlns="http://www.w3.org/2000/svg">
<g clip-path="url(#clip0_2_2368)">
<path d="M6.8457 14C6.96273 14.2027 7.13105 14.371 7.33373 14.488C7.53642 14.605 7.76633 14.6666 8.00037 14.6666C8.23441 14.6666 8.46432 14.605 8.66701 14.488C8.86969 14.371 9.03801 14.2027 9.15504 14" stroke="#0C4A6E" stroke-width="1.33333" stroke-linecap="round" stroke-linejoin="round"/>
<path d="M2.17418 10.2173C2.08709 10.3128 2.02962 10.4315 2.00875 10.559C1.98788 10.6865 2.00453 10.8173 2.05665 10.9356C2.10878 11.0538 2.19414 11.1544 2.30235 11.225C2.41056 11.2956 2.53697 11.3332 2.66618 11.3333H13.3328C13.462 11.3334 13.5885 11.2959 13.6968 11.2254C13.805 11.1549 13.8905 11.0545 13.9428 10.9363C13.995 10.8182 14.0118 10.6874 13.9911 10.5598C13.9704 10.4323 13.9131 10.3135 13.8262 10.218C12.9395 9.30398 11.9995 8.33265 11.9995 5.33331C11.9995 4.27245 11.5781 3.25503 10.8279 2.50489C10.0778 1.75474 9.06038 1.33331 7.99951 1.33331C6.93865 1.33331 5.92123 1.75474 5.17109 2.50489C4.42094 3.25503 3.99951 4.27245 3.99951 5.33331C3.99951 8.33265 3.05885 9.30398 2.17418 10.2173Z" stroke="#0C4A6E" stroke-width="1.33333" stroke-linecap="round" stroke-linejoin="round"/>
</g>
<defs>
<clipPath id="clip0_2_2368">
<rect width="16" height="16" fill="white"/>
</clipPath>
</defs>
</svg>
