<svg width="16" height="16" viewBox="0 0 16 16" fill="none" xmlns="http://www.w3.org/2000/svg">
<g clip-path="url(#clip0_66_2643)">
<path d="M7.15356 3.38318C8.70611 3.19816 10.2765 3.52636 11.6251 4.31765C12.9736 5.10894 14.026 6.31985 14.6217 7.76544C14.6773 7.91508 14.6773 8.07969 14.6217 8.22933C14.3768 8.82318 14.0531 9.38138 13.6593 9.88892" stroke="#0C4A6E" stroke-width="1.33301" stroke-linecap="round" stroke-linejoin="round"/>
<path d="M9.38701 9.43638C9.0099 9.80061 8.50482 10.0021 7.98055 9.99759C7.45629 9.99303 6.95478 9.78275 6.58406 9.41202C6.21333 9.0413 6.00304 8.53979 5.99849 8.01553C5.99393 7.49126 6.19547 6.98618 6.5597 6.60907" stroke="#0C4A6E" stroke-width="1.33301" stroke-linecap="round" stroke-linejoin="round"/>
<path d="M11.6498 11.6632C10.7657 12.1869 9.77922 12.5143 8.75741 12.6232C7.73559 12.7321 6.7023 12.6199 5.72766 12.2943C4.75302 11.9686 3.85982 11.4371 3.10869 10.7359C2.35755 10.0346 1.76604 9.18001 1.3743 8.23C1.31875 8.08036 1.31875 7.91576 1.3743 7.76612C1.96525 6.33304 3.00502 5.13026 4.33758 4.33829" stroke="#0C4A6E" stroke-width="1.33301" stroke-linecap="round" stroke-linejoin="round"/>
<path d="M1.33301 1.33301L14.6631 14.6631" stroke="#0C4A6E" stroke-width="1.33301" stroke-linecap="round" stroke-linejoin="round"/>
</g>
<defs>
<clipPath id="clip0_66_2643">
<rect width="15.9961" height="15.9961" fill="white"/>
</clipPath>
</defs>
</svg>
