<svg width="20" height="20" viewBox="0 0 20 20" fill="none" xmlns="http://www.w3.org/2000/svg">
<path d="M3.3335 1.66666V18.3333L5.00016 17.5L6.66683 18.3333L8.3335 17.5L10.0002 18.3333L11.6668 17.5L13.3335 18.3333L15.0002 17.5L16.6668 18.3333V1.66666L15.0002 2.49999L13.3335 1.66666L11.6668 2.49999L10.0002 1.66666L8.3335 2.49999L6.66683 1.66666L5.00016 2.49999L3.3335 1.66666Z" stroke="#155DFC" stroke-width="1.66667" stroke-linecap="round" stroke-linejoin="round"/>
<path d="M13.3332 6.66666H8.33317C7.89114 6.66666 7.46722 6.84225 7.15466 7.15481C6.8421 7.46737 6.6665 7.8913 6.6665 8.33332C6.6665 8.77535 6.8421 9.19927 7.15466 9.51183C7.46722 9.82439 7.89114 9.99999 8.33317 9.99999H11.6665C12.1085 9.99999 12.5325 10.1756 12.845 10.4881C13.1576 10.8007 13.3332 11.2246 13.3332 11.6667C13.3332 12.1087 13.1576 12.5326 12.845 12.8452C12.5325 13.1577 12.1085 13.3333 11.6665 13.3333H6.6665" stroke="#155DFC" stroke-width="1.66667" stroke-linecap="round" stroke-linejoin="round"/>
<path d="M10 14.5833V5.41666" stroke="#155DFC" stroke-width="1.66667" stroke-linecap="round" stroke-linejoin="round"/>
</svg>
