<svg width="20" height="20" viewBox="0 0 20 20" fill="none" xmlns="http://www.w3.org/2000/svg">
<path d="M7.49935 10.8334C7.95959 10.8334 8.33268 10.4603 8.33268 10C8.33268 9.53978 7.95959 9.16669 7.49935 9.16669C7.03911 9.16669 6.66602 9.53978 6.66602 10C6.66602 10.4603 7.03911 10.8334 7.49935 10.8334Z" stroke="#99A1AF" stroke-width="1.66667" stroke-linecap="round" stroke-linejoin="round"/>
<path d="M7.49935 4.99998C7.95959 4.99998 8.33268 4.62688 8.33268 4.16665C8.33268 3.70641 7.95959 3.33331 7.49935 3.33331C7.03911 3.33331 6.66602 3.70641 6.66602 4.16665C6.66602 4.62688 7.03911 4.99998 7.49935 4.99998Z" stroke="#99A1AF" stroke-width="1.66667" stroke-linecap="round" stroke-linejoin="round"/>
<path d="M7.49935 16.6667C7.95959 16.6667 8.33268 16.2936 8.33268 15.8333C8.33268 15.3731 7.95959 15 7.49935 15C7.03911 15 6.66602 15.3731 6.66602 15.8333C6.66602 16.2936 7.03911 16.6667 7.49935 16.6667Z" stroke="#99A1AF" stroke-width="1.66667" stroke-linecap="round" stroke-linejoin="round"/>
<path d="M12.4993 10.8334C12.9596 10.8334 13.3327 10.4603 13.3327 10C13.3327 9.53978 12.9596 9.16669 12.4993 9.16669C12.0391 9.16669 11.666 9.53978 11.666 10C11.666 10.4603 12.0391 10.8334 12.4993 10.8334Z" stroke="#99A1AF" stroke-width="1.66667" stroke-linecap="round" stroke-linejoin="round"/>
<path d="M12.4993 4.99998C12.9596 4.99998 13.3327 4.62688 13.3327 4.16665C13.3327 3.70641 12.9596 3.33331 12.4993 3.33331C12.0391 3.33331 11.666 3.70641 11.666 4.16665C11.666 4.62688 12.0391 4.99998 12.4993 4.99998Z" stroke="#99A1AF" stroke-width="1.66667" stroke-linecap="round" stroke-linejoin="round"/>
<path d="M12.4993 16.6667C12.9596 16.6667 13.3327 16.2936 13.3327 15.8333C13.3327 15.3731 12.9596 15 12.4993 15C12.0391 15 11.666 15.3731 11.666 15.8333C11.666 16.2936 12.0391 16.6667 12.4993 16.6667Z" stroke="#99A1AF" stroke-width="1.66667" stroke-linecap="round" stroke-linejoin="round"/>
</svg>
