<svg width="16" height="16" viewBox="0 0 16 16" fill="none" xmlns="http://www.w3.org/2000/svg">
<g clip-path="url(#clip0_67_3145)">
<path d="M1.37442 8.22998C1.31888 8.08034 1.31888 7.91573 1.37442 7.76609C1.91543 6.45431 2.83374 5.33271 4.01296 4.54348C5.19218 3.75424 6.57918 3.33292 7.99814 3.33292C9.4171 3.33292 10.8041 3.75424 11.9833 4.54348C13.1625 5.33271 14.0809 6.45431 14.6219 7.76609C14.6774 7.91573 14.6774 8.08034 14.6219 8.22998C14.0809 9.54175 13.1625 10.6634 11.9833 11.4526C10.8041 12.2418 9.4171 12.6631 7.99814 12.6631C6.57918 12.6631 5.19218 12.2418 4.01296 11.4526C2.83374 10.6634 1.91543 9.54175 1.37442 8.22998Z" stroke="#0C4A6E" stroke-width="1.33301" stroke-linecap="round" stroke-linejoin="round"/>
<path d="M7.99805 9.99756C9.10235 9.99756 9.99756 9.10235 9.99756 7.99805C9.99756 6.89375 9.10235 5.99854 7.99805 5.99854C6.89375 5.99854 5.99854 6.89375 5.99854 7.99805C5.99854 9.10235 6.89375 9.99756 7.99805 9.99756Z" stroke="#0C4A6E" stroke-width="1.33301" stroke-linecap="round" stroke-linejoin="round"/>
</g>
<defs>
<clipPath id="clip0_67_3145">
<rect width="15.9961" height="15.9961" fill="white"/>
</clipPath>
</defs>
</svg>
