<svg width="20" height="20" viewBox="0 0 20 20" fill="none" xmlns="http://www.w3.org/2000/svg">
<path d="M16.6666 8.33341C16.6666 12.4942 12.0508 16.8276 10.5008 18.1659C10.3564 18.2745 10.1806 18.3332 9.99998 18.3332C9.81931 18.3332 9.64354 18.2745 9.49915 18.1659C7.94915 16.8276 3.33331 12.4942 3.33331 8.33341C3.33331 6.5653 4.03569 4.86961 5.28593 3.61937C6.53618 2.36913 8.23187 1.66675 9.99998 1.66675C11.7681 1.66675 13.4638 2.36913 14.714 3.61937C15.9643 4.86961 16.6666 6.5653 16.6666 8.33341Z" stroke="#155DFC" stroke-width="1.66667" stroke-linecap="round" stroke-linejoin="round"/>
<path d="M10 10.8333C11.3807 10.8333 12.5 9.71396 12.5 8.33325C12.5 6.95254 11.3807 5.83325 10 5.83325C8.61929 5.83325 7.5 6.95254 7.5 8.33325C7.5 9.71396 8.61929 10.8333 10 10.8333Z" stroke="#155DFC" stroke-width="1.66667" stroke-linecap="round" stroke-linejoin="round"/>
</svg>
