<svg width="15" height="15" viewBox="0 0 15 15" fill="none" xmlns="http://www.w3.org/2000/svg">
<path d="M13.922 10.6108V12.6103C13.9228 12.7959 13.8847 12.9797 13.8104 13.1498C13.736 13.3198 13.6269 13.4725 13.4902 13.598C13.3534 13.7235 13.1919 13.819 13.0161 13.8785C12.8402 13.9379 12.6539 13.96 12.469 13.9433C10.4181 13.7205 8.44801 13.0196 6.7171 11.8972C5.10672 10.8739 3.74139 9.50852 2.71808 7.89814C1.59167 6.15936 0.890689 4.17971 0.671914 2.11955C0.655258 1.93524 0.677162 1.74948 0.736232 1.5741C0.795301 1.39872 0.890241 1.23756 1.01501 1.10088C1.13977 0.964198 1.29163 0.854995 1.46092 0.780222C1.6302 0.705449 1.8132 0.666743 1.99826 0.666569H3.99777C4.32123 0.663385 4.63481 0.777927 4.88006 0.988845C5.12531 1.19976 5.28551 1.49266 5.33078 1.81296C5.41517 2.45284 5.57168 3.08113 5.79733 3.68583C5.887 3.92439 5.90641 4.18365 5.85325 4.4329C5.8001 4.68215 5.6766 4.91094 5.4974 5.09215L4.65094 5.93861C5.59975 7.60724 6.98134 8.98883 8.64997 9.93764L9.49643 9.09118C9.67764 8.91198 9.90643 8.78848 10.1557 8.73533C10.4049 8.68217 10.6642 8.70158 10.9027 8.79125C11.5074 9.0169 12.1357 9.17341 12.7756 9.2578C13.0994 9.30348 13.3951 9.46656 13.6064 9.71602C13.8178 9.96549 13.9301 10.2839 13.922 10.6108Z" stroke="#99A1AF" stroke-width="1.33301" stroke-linecap="round" stroke-linejoin="round"/>
</svg>
