<svg width="16" height="16" viewBox="0 0 16 16" fill="none" xmlns="http://www.w3.org/2000/svg">
<g clip-path="url(#clip0_70_31306)">
<path d="M14.5304 6.66487C14.8347 8.1587 14.6178 9.71174 13.9157 11.065C13.2137 12.4182 12.0689 13.4899 10.6723 14.1013C9.27573 14.7126 7.71177 14.8267 6.24125 14.4246C4.77072 14.0224 3.48251 13.1282 2.59146 11.8912C1.7004 10.6542 1.26034 9.14909 1.34468 7.62689C1.42903 6.1047 2.03266 4.65742 3.05493 3.52642C4.07719 2.39541 5.45629 1.64905 6.96225 1.41179C8.4682 1.17453 10.01 1.46071 11.3305 2.22262" stroke="#00A63E" stroke-width="1.33301" stroke-linecap="round" stroke-linejoin="round"/>
<path d="M5.99854 7.33154L7.99805 9.33105L14.6631 2.66602" stroke="#00A63E" stroke-width="1.33301" stroke-linecap="round" stroke-linejoin="round"/>
</g>
<defs>
<clipPath id="clip0_70_31306">
<rect width="15.9961" height="15.9961" fill="white"/>
</clipPath>
</defs>
</svg>
