<svg width="12" height="12" viewBox="0 0 12 12" fill="none" xmlns="http://www.w3.org/2000/svg">
<g clip-path="url(#clip0_70_31256)">
<path d="M5.75883 1.14686C5.78073 1.10262 5.81456 1.06538 5.8565 1.03935C5.89844 1.01331 5.94682 0.999512 5.99618 0.999512C6.04554 0.999512 6.09392 1.01331 6.13586 1.03935C6.1778 1.06538 6.21163 1.10262 6.23352 1.14686L7.38777 3.48484C7.46381 3.63872 7.57606 3.77186 7.71487 3.87281C7.85369 3.97377 8.01493 4.03953 8.18475 4.06446L10.7661 4.44222C10.815 4.4493 10.8609 4.46993 10.8987 4.50178C10.9365 4.53362 10.9647 4.5754 10.9799 4.6224C10.9952 4.6694 10.9971 4.71974 10.9852 4.76772C10.9734 4.81571 10.9484 4.85942 10.913 4.89392L9.04619 6.71174C8.92308 6.83171 8.83097 6.9798 8.77778 7.14327C8.7246 7.30674 8.71194 7.48068 8.74089 7.65013L9.1816 10.2185C9.19024 10.2673 9.18496 10.3177 9.16636 10.3637C9.14777 10.4097 9.11661 10.4496 9.07644 10.4788C9.03628 10.508 8.98872 10.5253 8.9392 10.5287C8.88967 10.5321 8.84018 10.5216 8.79636 10.4983L6.48886 9.28506C6.33682 9.20523 6.16766 9.16352 5.99593 9.16352C5.8242 9.16352 5.65504 9.20523 5.503 9.28506L3.196 10.4983C3.1522 10.5215 3.10276 10.5319 3.05332 10.5284C3.00388 10.5249 2.95642 10.5075 2.91633 10.4784C2.87625 10.4492 2.84515 10.4094 2.82657 10.3635C2.808 10.3175 2.80269 10.2673 2.81125 10.2185L3.25147 7.65063C3.28055 7.4811 3.26795 7.30705 3.21476 7.14348C3.16157 6.97991 3.06939 6.83174 2.94617 6.71174L1.07938 4.89442C1.0437 4.85996 1.01842 4.81617 1.00641 4.76804C0.994404 4.71991 0.996155 4.66938 1.01147 4.62219C1.02678 4.57501 1.05503 4.53308 1.09301 4.50117C1.13099 4.46926 1.17717 4.44866 1.22629 4.44172L3.80711 4.06446C3.97712 4.03973 4.13858 3.97405 4.27759 3.87308C4.4166 3.77211 4.52899 3.63887 4.60509 3.48484L5.75883 1.14686Z" fill="#F0B100" stroke="#F0B100" stroke-width="0.999349" stroke-linecap="round" stroke-linejoin="round"/>
</g>
<defs>
<clipPath id="clip0_70_31256">
<rect width="11.9922" height="11.9922" fill="white"/>
</clipPath>
</defs>
</svg>
