<svg width="16" height="16" viewBox="0 0 16 16" fill="none" xmlns="http://www.w3.org/2000/svg">
<path d="M10.3308 4.99878L11.8638 6.53174C11.9884 6.65386 12.1559 6.72226 12.3303 6.72226C12.5048 6.72226 12.6723 6.65386 12.7969 6.53174L14.1965 5.13208C14.3187 5.00749 14.3871 4.83999 14.3871 4.66553C14.3871 4.49107 14.3187 4.32356 14.1965 4.19897L12.6636 2.66602" stroke="#155DFC" stroke-width="1.33301" stroke-linecap="round" stroke-linejoin="round"/>
<path d="M13.9966 1.33301L7.59814 7.73145" stroke="#155DFC" stroke-width="1.33301" stroke-linecap="round" stroke-linejoin="round"/>
<path d="M4.99878 13.9966C7.02333 13.9966 8.66455 12.3554 8.66455 10.3308C8.66455 8.30626 7.02333 6.66504 4.99878 6.66504C2.97423 6.66504 1.33301 8.30626 1.33301 10.3308C1.33301 12.3554 2.97423 13.9966 4.99878 13.9966Z" stroke="#155DFC" stroke-width="1.33301" stroke-linecap="round" stroke-linejoin="round"/>
</svg>
