<svg width="16" height="16" viewBox="0 0 16 16" fill="none" xmlns="http://www.w3.org/2000/svg">
<g clip-path="url(#clip0_70_26416)">
<path d="M8.9978 4.66553C9.18185 4.66553 9.33105 4.51633 9.33105 4.33228C9.33105 4.14823 9.18185 3.99902 8.9978 3.99902C8.81375 3.99902 8.66455 4.14823 8.66455 4.33228C8.66455 4.51633 8.81375 4.66553 8.9978 4.66553Z" fill="#0C4A6E" stroke="#0C4A6E" stroke-width="1.33301" stroke-linecap="round" stroke-linejoin="round"/>
<path d="M11.6638 7.33154C11.8479 7.33154 11.9971 7.18234 11.9971 6.99829C11.9971 6.81424 11.8479 6.66504 11.6638 6.66504C11.4798 6.66504 11.3306 6.81424 11.3306 6.99829C11.3306 7.18234 11.4798 7.33154 11.6638 7.33154Z" fill="#0C4A6E" stroke="#0C4A6E" stroke-width="1.33301" stroke-linecap="round" stroke-linejoin="round"/>
<path d="M5.66528 5.33203C5.84933 5.33203 5.99854 5.18283 5.99854 4.99878C5.99854 4.81473 5.84933 4.66553 5.66528 4.66553C5.48123 4.66553 5.33203 4.81473 5.33203 4.99878C5.33203 5.18283 5.48123 5.33203 5.66528 5.33203Z" fill="#0C4A6E" stroke="#0C4A6E" stroke-width="1.33301" stroke-linecap="round" stroke-linejoin="round"/>
<path d="M4.33228 8.66455C4.51633 8.66455 4.66553 8.51535 4.66553 8.3313C4.66553 8.14725 4.51633 7.99805 4.33228 7.99805C4.14823 7.99805 3.99902 8.14725 3.99902 8.3313C3.99902 8.51535 4.14823 8.66455 4.33228 8.66455Z" fill="#0C4A6E" stroke="#0C4A6E" stroke-width="1.33301" stroke-linecap="round" stroke-linejoin="round"/>
<path d="M7.99805 1.33301C4.33228 1.33301 1.33301 4.33228 1.33301 7.99805C1.33301 11.6638 4.33228 14.6631 7.99805 14.6631C8.61523 14.6631 9.09645 14.1659 9.09645 13.538C9.09645 13.2468 8.97647 12.9815 8.80518 12.7882C8.6119 12.5956 8.51325 12.3537 8.51325 12.0384C8.51073 11.8917 8.53776 11.746 8.59273 11.61C8.64771 11.474 8.7295 11.3504 8.83324 11.2467C8.93698 11.1429 9.06055 11.0611 9.19657 11.0061C9.33259 10.9512 9.47829 10.9241 9.62498 10.9267H10.9553C12.9888 10.9267 14.6578 9.25841 14.6578 7.2249C14.6398 4.00702 11.6378 1.33301 7.99805 1.33301Z" stroke="#0C4A6E" stroke-width="1.33301" stroke-linecap="round" stroke-linejoin="round"/>
</g>
<defs>
<clipPath id="clip0_70_26416">
<rect width="15.9961" height="15.9961" fill="white"/>
</clipPath>
</defs>
</svg>
