<svg width="16" height="16" viewBox="0 0 16 16" fill="none" xmlns="http://www.w3.org/2000/svg">
<g clip-path="url(#clip0_70_26440)">
<path d="M13.3301 8.66454C13.3301 11.9971 10.9973 13.6633 8.22466 14.6298C8.07947 14.679 7.92176 14.6766 7.7781 14.6231C4.99878 13.6633 2.66602 11.9971 2.66602 8.66454V3.99902C2.66602 3.82225 2.73624 3.65272 2.86123 3.52773C2.98622 3.40273 3.15575 3.33251 3.33252 3.33251C4.66553 3.33251 6.33179 2.53271 7.4915 1.51962C7.63271 1.39899 7.81233 1.3327 7.99805 1.3327C8.18377 1.3327 8.36339 1.39899 8.50459 1.51962C9.67097 2.53937 11.3306 3.33251 12.6636 3.33251C12.8403 3.33251 13.0099 3.40273 13.1349 3.52773C13.2599 3.65272 13.3301 3.82225 13.3301 3.99902V8.66454Z" stroke="#0C4A6E" stroke-width="1.33301" stroke-linecap="round" stroke-linejoin="round"/>
</g>
<defs>
<clipPath id="clip0_70_26440">
<rect width="15.9961" height="15.9961" fill="white"/>
</clipPath>
</defs>
</svg>
