<svg width="16" height="16" viewBox="0 0 16 16" fill="none" xmlns="http://www.w3.org/2000/svg">
<g clip-path="url(#clip0_70_26444)">
<path d="M10.6641 13.9966V12.6636C10.6641 11.9565 10.3832 11.2784 9.8832 10.7784C9.38323 10.2784 8.70512 9.99756 7.99805 9.99756H3.99902C3.29195 9.99756 2.61384 10.2784 2.11387 10.7784C1.61389 11.2784 1.33301 11.9565 1.33301 12.6636V13.9966" stroke="#0C4A6E" stroke-width="1.33301" stroke-linecap="round" stroke-linejoin="round"/>
<path d="M5.99854 7.33154C7.47093 7.33154 8.66455 6.13793 8.66455 4.66553C8.66455 3.19313 7.47093 1.99951 5.99854 1.99951C4.52614 1.99951 3.33252 3.19313 3.33252 4.66553C3.33252 6.13793 4.52614 7.33154 5.99854 7.33154Z" stroke="#0C4A6E" stroke-width="1.33301" stroke-linecap="round" stroke-linejoin="round"/>
<path d="M14.6631 13.9966V12.6636C14.6626 12.0729 14.466 11.499 14.1041 11.0322C13.7422 10.5653 13.2355 10.2319 12.6636 10.0842" stroke="#0C4A6E" stroke-width="1.33301" stroke-linecap="round" stroke-linejoin="round"/>
<path d="M10.6641 2.08615C11.2375 2.23298 11.7458 2.5665 12.1088 3.03413C12.4718 3.50175 12.6688 4.07688 12.6688 4.66885C12.6688 5.26082 12.4718 5.83596 12.1088 6.30358C11.7458 6.77121 11.2375 7.10472 10.6641 7.25156" stroke="#0C4A6E" stroke-width="1.33301" stroke-linecap="round" stroke-linejoin="round"/>
</g>
<defs>
<clipPath id="clip0_70_26444">
<rect width="15.9961" height="15.9961" fill="white"/>
</clipPath>
</defs>
</svg>
