<svg width="20" height="20" viewBox="0 0 20 20" fill="none" xmlns="http://www.w3.org/2000/svg">
<path d="M3.33331 1.66666V18.3333L4.99998 17.5L6.66665 18.3333L8.33331 17.5L9.99998 18.3333L11.6666 17.5L13.3333 18.3333L15 17.5L16.6666 18.3333V1.66666L15 2.49999L13.3333 1.66666L11.6666 2.49999L9.99998 1.66666L8.33331 2.49999L6.66665 1.66666L4.99998 2.49999L3.33331 1.66666Z" stroke="#155DFC" stroke-width="1.66667" stroke-linecap="round" stroke-linejoin="round"/>
<path d="M13.3334 6.66666H8.33335C7.89133 6.66666 7.4674 6.84225 7.15484 7.15481C6.84228 7.46737 6.66669 7.8913 6.66669 8.33332C6.66669 8.77535 6.84228 9.19927 7.15484 9.51183C7.4674 9.82439 7.89133 9.99999 8.33335 9.99999H11.6667C12.1087 9.99999 12.5326 10.1756 12.8452 10.4881C13.1578 10.8007 13.3334 11.2246 13.3334 11.6667C13.3334 12.1087 13.1578 12.5326 12.8452 12.8452C12.5326 13.1577 12.1087 13.3333 11.6667 13.3333H6.66669" stroke="#155DFC" stroke-width="1.66667" stroke-linecap="round" stroke-linejoin="round"/>
<path d="M10 14.5833V5.41666" stroke="#155DFC" stroke-width="1.66667" stroke-linecap="round" stroke-linejoin="round"/>
</svg>
