<svg width="24" height="24" viewBox="0 0 24 24" fill="none" xmlns="http://www.w3.org/2000/svg">
<path d="M18.9951 10.9973H4.99854C3.89424 10.9973 2.99902 11.8925 2.99902 12.9968V19.9951C2.99902 21.0994 3.89424 21.9946 4.99854 21.9946H18.9951C20.0994 21.9946 20.9946 21.0994 20.9946 19.9951V12.9968C20.9946 11.8925 20.0994 10.9973 18.9951 10.9973Z" stroke="white" stroke-width="1.99951" stroke-linecap="round" stroke-linejoin="round"/>
<path d="M6.99805 10.9973V6.99829C6.99805 5.67253 7.5247 4.40107 8.46216 3.46362C9.39961 2.52617 10.6711 1.99951 11.9968 1.99951C13.3226 1.99951 14.594 2.52617 15.5315 3.46362C16.4689 4.40107 16.9956 5.67253 16.9956 6.99829V10.9973" stroke="white" stroke-width="1.99951" stroke-linecap="round" stroke-linejoin="round"/>
</svg>
