<svg width="30" height="30" viewBox="0 0 30 30" fill="none" xmlns="http://www.w3.org/2000/svg">
<path d="M27.844 21.2216V25.2206C27.8455 25.5919 27.7695 25.9593 27.6208 26.2995C27.472 26.6397 27.2539 26.945 26.9803 27.196C26.7068 27.4469 26.3838 27.638 26.0321 27.757C25.6805 27.8759 25.3078 27.9201 24.9381 27.8867C20.8362 27.4409 16.896 26.0393 13.4342 23.7943C10.2134 21.7477 7.48278 19.017 5.43616 15.7963C3.18335 12.3187 1.78138 8.35941 1.34383 4.23909C1.31052 3.87047 1.35432 3.49896 1.47246 3.14819C1.5906 2.79743 1.78048 2.47511 2.03001 2.20175C2.27955 1.9284 2.58326 1.70999 2.92183 1.56044C3.2604 1.4109 3.62639 1.33349 3.99651 1.33314H7.99554C8.64245 1.32677 9.26961 1.55585 9.76012 1.97769C10.2506 2.39953 10.571 2.98533 10.6616 3.62591C10.8303 4.90569 11.1434 6.16226 11.5947 7.37166C11.774 7.84878 11.8128 8.36731 11.7065 8.8658C11.6002 9.3643 11.3532 9.82188 10.9948 10.1843L9.30188 11.8772C11.1995 15.2145 13.9627 17.9777 17.2999 19.8753L18.9929 18.1824C19.3553 17.824 19.8129 17.577 20.3114 17.4707C20.8099 17.3643 21.3284 17.4032 21.8055 17.5825C23.0149 18.0338 24.2715 18.3468 25.5513 18.5156C26.1988 18.607 26.7901 18.9331 27.2129 19.432C27.6356 19.931 27.8602 20.5679 27.844 21.2216Z" stroke="#155DFC" stroke-width="2.66602" stroke-linecap="round" stroke-linejoin="round"/>
</svg>
