<svg width="22" height="22" viewBox="0 0 22 22" fill="none" xmlns="http://www.w3.org/2000/svg">
<path d="M20.8833 15.9162V18.9155C20.8844 19.1939 20.8274 19.4695 20.7158 19.7246C20.6043 19.9797 20.4407 20.2088 20.2355 20.397C20.0303 20.5852 19.7881 20.7285 19.5243 20.8177C19.2606 20.9069 18.9811 20.9401 18.7038 20.915C15.6274 20.5807 12.6723 19.5295 10.0759 17.8457C7.66032 16.3108 5.61233 14.2628 4.07737 11.8472C2.38776 9.23905 1.33628 6.26956 1.00811 3.17932C0.983131 2.90286 1.01599 2.62422 1.10459 2.36114C1.1932 2.09807 1.33561 1.85633 1.52276 1.65131C1.7099 1.4463 1.93769 1.28249 2.19162 1.17033C2.44554 1.05817 2.72004 1.00011 2.99763 0.999853H5.9969C6.48208 0.995078 6.95246 1.16689 7.32034 1.48327C7.68822 1.79964 7.9285 2.239 7.99641 2.71943C8.123 3.67926 8.35777 4.6217 8.69624 5.52875C8.83075 5.88658 8.85986 6.27548 8.78012 6.64935C8.70039 7.02323 8.51514 7.36641 8.24635 7.63823L6.97666 8.90792C8.39987 11.4109 10.4723 13.4832 12.9752 14.9065L14.2449 13.6368C14.5167 13.368 14.8599 13.1827 15.2338 13.103C15.6076 13.0233 15.9965 13.0524 16.3544 13.1869C17.2614 13.5253 18.2038 13.7601 19.1637 13.8867C19.6493 13.9552 20.0929 14.1998 20.4099 14.574C20.727 14.9482 20.8954 15.4259 20.8833 15.9162Z" stroke="white" stroke-width="1.99951" stroke-linecap="round" stroke-linejoin="round"/>
</svg>
