<svg width="24" height="30" viewBox="0 0 24 30" fill="none" xmlns="http://www.w3.org/2000/svg">
<path d="M22.6611 15.9967C22.6611 22.6617 17.9956 25.9943 12.4503 27.9271C12.1599 28.0255 11.8445 28.0208 11.5572 27.9138C5.99854 25.9943 1.33301 22.6617 1.33301 15.9967V6.66564C1.33301 6.3121 1.47345 5.97305 1.72344 5.72306C1.97342 5.47307 2.31248 5.33263 2.66602 5.33263C5.33203 5.33263 8.66455 3.73302 10.984 1.70685C11.2664 1.46557 11.6256 1.33301 11.9971 1.33301C12.3685 1.33301 12.7278 1.46557 13.0102 1.70685C15.3429 3.74635 18.6621 5.33263 21.3281 5.33263C21.6817 5.33263 22.0207 5.47307 22.2707 5.72306C22.5207 5.97305 22.6611 6.3121 22.6611 6.66564V15.9967Z" stroke="#155DFC" stroke-width="2.66602" stroke-linecap="round" stroke-linejoin="round"/>
</svg>
