<svg width="18" height="22" viewBox="0 0 18 22" fill="none" xmlns="http://www.w3.org/2000/svg">
<path d="M16.9961 11.9975C16.9961 16.9963 13.4969 19.4957 9.33796 20.9453C9.12018 21.0191 8.88361 21.0156 8.66813 20.9353C4.49915 19.4957 1 16.9963 1 11.9975V4.99923C1 4.73408 1.10533 4.47979 1.29282 4.2923C1.48031 4.1048 1.7346 3.99947 1.99976 3.99947C3.99927 3.99947 6.49866 2.79977 8.23823 1.28014C8.45004 1.09918 8.71947 0.999756 8.99805 0.999756C9.27663 0.999756 9.54606 1.09918 9.75786 1.28014C11.5074 2.80976 13.9968 3.99947 15.9963 3.99947C16.2615 3.99947 16.5158 4.1048 16.7033 4.2923C16.8908 4.47979 16.9961 4.73408 16.9961 4.99923V11.9975Z" stroke="white" stroke-width="1.99951" stroke-linecap="round" stroke-linejoin="round"/>
</svg>
