<svg width="20" height="20" viewBox="0 0 20 20" fill="none" xmlns="http://www.w3.org/2000/svg">
<g filter="url(#filter0_d_4_8921)">
<mask id="path-1-inside-1_4_8921" fill="white">
<path d="M2 5C2 2.79086 3.79086 1 6 1H14C16.2091 1 18 2.79086 18 5V13C18 15.2091 16.2091 17 14 17H6C3.79086 17 2 15.2091 2 13V5Z"/>
</mask>
<path d="M2 5C2 2.79086 3.79086 1 6 1H14C16.2091 1 18 2.79086 18 5V13C18 15.2091 16.2091 17 14 17H6C3.79086 17 2 15.2091 2 13V5Z" fill="#0284C7" shape-rendering="crispEdges"/>
<path d="M6 1V2.6H14V1V-0.6H6V1ZM18 5H16.4V13H18H19.6V5H18ZM14 17V15.4H6V17V18.6H14V17ZM2 13H3.6V5H2H0.4V13H2ZM6 17V15.4C4.67452 15.4 3.6 14.3255 3.6 13H2H0.4C0.4 16.0928 2.90721 18.6 6 18.6V17ZM18 13H16.4C16.4 14.3255 15.3255 15.4 14 15.4V17V18.6C17.0928 18.6 19.6 16.0928 19.6 13H18ZM14 1V2.6C15.3255 2.6 16.4 3.67452 16.4 5H18H19.6C19.6 1.90721 17.0928 -0.6 14 -0.6V1ZM6 1V-0.6C2.90721 -0.6 0.4 1.90721 0.4 5H2H3.6C3.6 3.67452 4.67452 2.6 6 2.6V1Z" fill="#0284C7" mask="url(#path-1-inside-1_4_8921)"/>
<path d="M14.2666 6.40015L8.39994 12.2668L5.73328 9.60015" stroke="white" stroke-width="1.06667" stroke-linecap="round" stroke-linejoin="round"/>
</g>
<defs>
<filter id="filter0_d_4_8921" x="0" y="0" width="20" height="20" filterUnits="userSpaceOnUse" color-interpolation-filters="sRGB">
<feFlood flood-opacity="0" result="BackgroundImageFix"/>
<feColorMatrix in="SourceAlpha" type="matrix" values="0 0 0 0 0 0 0 0 0 0 0 0 0 0 0 0 0 0 127 0" result="hardAlpha"/>
<feOffset dy="1"/>
<feGaussianBlur stdDeviation="1"/>
<feComposite in2="hardAlpha" operator="out"/>
<feColorMatrix type="matrix" values="0 0 0 0 0 0 0 0 0 0 0 0 0 0 0 0 0 0 0.05 0"/>
<feBlend mode="normal" in2="BackgroundImageFix" result="effect1_dropShadow_4_8921"/>
<feBlend mode="normal" in="SourceGraphic" in2="effect1_dropShadow_4_8921" result="shape"/>
</filter>
</defs>
</svg>
