<svg width="16" height="16" viewBox="0 0 16 16" fill="none" xmlns="http://www.w3.org/2000/svg">
<path d="M10 14V8.66667C10 8.48986 9.92976 8.32029 9.80474 8.19526C9.67971 8.07024 9.51014 8 9.33333 8H6.66667C6.48986 8 6.32029 8.07024 6.19526 8.19526C6.07024 8.32029 6 8.48986 6 8.66667V14" stroke="#0369A1" stroke-width="1.33333" stroke-linecap="round" stroke-linejoin="round"/>
<path d="M2 6.6666C1.99995 6.47265 2.04222 6.28102 2.12386 6.10508C2.20549 5.92914 2.32453 5.77314 2.47267 5.64794L7.13933 1.6486C7.37999 1.44521 7.6849 1.33362 8 1.33362C8.3151 1.33362 8.62001 1.44521 8.86067 1.6486L13.5273 5.64794C13.6755 5.77314 13.7945 5.92914 13.8761 6.10508C13.9578 6.28102 14 6.47265 14 6.6666V12.6666C14 13.0202 13.8595 13.3594 13.6095 13.6094C13.3594 13.8595 13.0203 13.9999 12.6667 13.9999H3.33333C2.97971 13.9999 2.64057 13.8595 2.39052 13.6094C2.14048 13.3594 2 13.0202 2 12.6666V6.6666Z" stroke="#0369A1" stroke-width="1.33333" stroke-linecap="round" stroke-linejoin="round"/>
</svg>
