<svg width="16" height="16" viewBox="0 0 16 16" fill="none" xmlns="http://www.w3.org/2000/svg">
<g clip-path="url(#clip0_2_2577)">
<path d="M6.8457 14C6.96273 14.2027 7.13105 14.371 7.33373 14.488C7.53642 14.605 7.76633 14.6666 8.00037 14.6666C8.23441 14.6666 8.46432 14.605 8.66701 14.488C8.86969 14.371 9.03801 14.2027 9.15504 14" stroke="#364153" stroke-width="1.33333" stroke-linecap="round" stroke-linejoin="round"/>
<path d="M2.17516 10.2174C2.08807 10.3128 2.03059 10.4315 2.00973 10.5591C1.98886 10.6866 2.0055 10.8174 2.05763 10.9356C2.10975 11.0539 2.19511 11.1544 2.30333 11.225C2.41154 11.2956 2.53794 11.3333 2.66716 11.3334H13.3338C13.463 11.3334 13.5895 11.2959 13.6977 11.2254C13.806 11.155 13.8915 11.0545 13.9437 10.9364C13.996 10.8182 14.0128 10.6874 13.9921 10.5599C13.9714 10.4324 13.9141 10.3136 13.8272 10.218C12.9405 9.30404 12.0005 8.33271 12.0005 5.33337C12.0005 4.27251 11.5791 3.25509 10.8289 2.50495C10.0788 1.7548 9.06136 1.33337 8.00049 1.33337C6.93962 1.33337 5.92221 1.7548 5.17206 2.50495C4.42192 3.25509 4.00049 4.27251 4.00049 5.33337C4.00049 8.33271 3.05982 9.30404 2.17516 10.2174Z" stroke="#364153" stroke-width="1.33333" stroke-linecap="round" stroke-linejoin="round"/>
</g>
<defs>
<clipPath id="clip0_2_2577">
<rect width="16" height="16" fill="white"/>
</clipPath>
</defs>
</svg>
