<svg width="32" height="32" viewBox="0 0 32 32" fill="none" xmlns="http://www.w3.org/2000/svg">
<path d="M7.99805 29.3262V5.33203C7.99805 4.62496 8.27893 3.94685 8.7789 3.44687C9.27888 2.9469 9.95699 2.66602 10.6641 2.66602H21.3281C22.0352 2.66602 22.7133 2.9469 23.2133 3.44687C23.7133 3.94685 23.9941 4.62496 23.9941 5.33203V29.3262H7.99805Z" stroke="#9810FA" stroke-width="2.66602" stroke-linecap="round" stroke-linejoin="round"/>
<path d="M7.99805 15.9961H5.33203C4.62496 15.9961 3.94685 16.277 3.44687 16.777C2.9469 17.2769 2.66602 17.955 2.66602 18.6621V26.6602C2.66602 27.3672 2.9469 28.0453 3.44687 28.5453C3.94685 29.0453 4.62496 29.3262 5.33203 29.3262H7.99805" stroke="#9810FA" stroke-width="2.66602" stroke-linecap="round" stroke-linejoin="round"/>
<path d="M23.9941 11.9971H26.6602C27.3672 11.9971 28.0453 12.278 28.5453 12.7779C29.0453 13.2779 29.3262 13.956 29.3262 14.6631V26.6602C29.3262 27.3672 29.0453 28.0453 28.5453 28.5453C28.0453 29.0453 27.3672 29.3262 26.6602 29.3262H23.9941" stroke="#9810FA" stroke-width="2.66602" stroke-linecap="round" stroke-linejoin="round"/>
<path d="M13.3301 7.99805H18.6621" stroke="#9810FA" stroke-width="2.66602" stroke-linecap="round" stroke-linejoin="round"/>
<path d="M13.3301 13.3301H18.6621" stroke="#9810FA" stroke-width="2.66602" stroke-linecap="round" stroke-linejoin="round"/>
<path d="M13.3301 18.6621H18.6621" stroke="#9810FA" stroke-width="2.66602" stroke-linecap="round" stroke-linejoin="round"/>
<path d="M13.3301 23.9941H18.6621" stroke="#9810FA" stroke-width="2.66602" stroke-linecap="round" stroke-linejoin="round"/>
</svg>
