<svg width="32" height="32" viewBox="0 0 32 32" fill="none" xmlns="http://www.w3.org/2000/svg">
<path d="M25.3271 9.33105V5.33203C25.3271 4.9785 25.1867 4.63944 24.9367 4.38945C24.6867 4.13946 24.3477 3.99902 23.9941 3.99902H6.66504C5.95797 3.99902 5.27986 4.27991 4.77988 4.77988C4.27991 5.27986 3.99902 5.95797 3.99902 6.66504C3.99902 7.37211 4.27991 8.05022 4.77988 8.5502C5.27986 9.05017 5.95797 9.33105 6.66504 9.33105H26.6602C27.0137 9.33105 27.3527 9.4715 27.6027 9.72148C27.8527 9.97147 27.9932 10.3105 27.9932 10.6641V15.9961M27.9932 15.9961H23.9941C23.2871 15.9961 22.609 16.277 22.109 16.777C21.609 17.2769 21.3281 17.955 21.3281 18.6621C21.3281 19.3692 21.609 20.0473 22.109 20.5473C22.609 21.0472 23.2871 21.3281 23.9941 21.3281H27.9932C28.3467 21.3281 28.6858 21.1877 28.9357 20.9377C29.1857 20.6877 29.3262 20.3487 29.3262 19.9951V17.3291C29.3262 16.9756 29.1857 16.6365 28.9357 16.3865C28.6858 16.1365 28.3467 15.9961 27.9932 15.9961Z" stroke="#155DFC" stroke-width="2.66602" stroke-linecap="round" stroke-linejoin="round"/>
<path d="M3.99902 6.66504V25.3271C3.99902 26.0342 4.27991 26.7123 4.77988 27.2123C5.27986 27.7123 5.95797 27.9932 6.66504 27.9932H26.6602C27.0137 27.9932 27.3527 27.8527 27.6027 27.6027C27.8527 27.3527 27.9932 27.0137 27.9932 26.6602V21.3281" stroke="#155DFC" stroke-width="2.66602" stroke-linecap="round" stroke-linejoin="round"/>
</svg>
