<svg width="16" height="16" viewBox="0 0 16 16" fill="none" xmlns="http://www.w3.org/2000/svg">
<g clip-path="url(#clip0_69_11241)">
<path d="M6.84363 13.9966C6.96063 14.1992 7.1289 14.3675 7.33154 14.4845C7.53417 14.6014 7.76403 14.663 7.99801 14.663C8.23199 14.663 8.46185 14.6014 8.66449 14.4845C8.86712 14.3675 9.0354 14.1992 9.1524 13.9966" stroke="#0C4A6E" stroke-width="1.33301" stroke-linecap="round" stroke-linejoin="round"/>
<path d="M2.17414 10.2148C2.08707 10.3103 2.02961 10.4289 2.00875 10.5564C1.98789 10.6839 2.00452 10.8147 2.05664 10.9329C2.10875 11.0511 2.19409 11.1516 2.30228 11.2222C2.41046 11.2928 2.53683 11.3305 2.66602 11.3306H13.3301C13.4592 11.3306 13.5856 11.2931 13.6939 11.2227C13.8022 11.1522 13.8876 11.0518 13.9399 10.9337C13.9921 10.8155 14.0089 10.6848 13.9882 10.5573C13.9675 10.4298 13.9102 10.311 13.8233 10.2155C12.9368 9.30173 11.9971 8.33063 11.9971 5.33203C11.9971 4.27142 11.5757 3.25426 10.8258 2.50429C10.0758 1.75433 9.05866 1.33301 7.99805 1.33301C6.93744 1.33301 5.92027 1.75433 5.17031 2.50429C4.42035 3.25426 3.99902 4.27142 3.99902 5.33203C3.99902 8.33063 3.05859 9.30173 2.17414 10.2148Z" stroke="#0C4A6E" stroke-width="1.33301" stroke-linecap="round" stroke-linejoin="round"/>
</g>
<defs>
<clipPath id="clip0_69_11241">
<rect width="15.9961" height="15.9961" fill="white"/>
</clipPath>
</defs>
</svg>
