<svg width="12" height="12" viewBox="0 0 12 12" fill="none" xmlns="http://www.w3.org/2000/svg">
<g clip-path="url(#clip0_69_3552)">
<path d="M6.28888 1.29214C6.10151 1.10471 5.84736 0.999385 5.58234 0.999329H1.99868C1.73363 0.999329 1.47945 1.10462 1.29203 1.29203C1.10462 1.47945 0.999329 1.73363 0.999329 1.99868V5.58234C0.999385 5.84736 1.10471 6.10151 1.29214 6.28888L5.6413 10.638C5.86841 10.8637 6.17558 10.9904 6.49575 10.9904C6.81592 10.9904 7.12308 10.8637 7.35019 10.638L10.638 7.35019C10.8637 7.12308 10.9904 6.81592 10.9904 6.49575C10.9904 6.17558 10.8637 5.86841 10.638 5.6413L6.28888 1.29214Z" stroke="#0C4A6E" stroke-width="0.999349" stroke-linecap="round" stroke-linejoin="round"/>
<path d="M3.74758 3.99742C3.88556 3.99742 3.99742 3.88556 3.99742 3.74758C3.99742 3.6096 3.88556 3.49774 3.74758 3.49774C3.6096 3.49774 3.49774 3.6096 3.49774 3.74758C3.49774 3.88556 3.6096 3.99742 3.74758 3.99742Z" fill="#0C4A6E" stroke="#0C4A6E" stroke-width="0.999349" stroke-linecap="round" stroke-linejoin="round"/>
</g>
<defs>
<clipPath id="clip0_69_3552">
<rect width="11.9922" height="11.9922" fill="white"/>
</clipPath>
</defs>
</svg>
