<svg width="20" height="20" viewBox="0 0 20 20" fill="none" xmlns="http://www.w3.org/2000/svg">
<path d="M3.3335 1.66675V18.3334L5.00016 17.5001L6.66683 18.3334L8.3335 17.5001L10.0002 18.3334L11.6668 17.5001L13.3335 18.3334L15.0002 17.5001L16.6668 18.3334V1.66675L15.0002 2.50008L13.3335 1.66675L11.6668 2.50008L10.0002 1.66675L8.3335 2.50008L6.66683 1.66675L5.00016 2.50008L3.3335 1.66675Z" stroke="#F97316" stroke-width="1.66667" stroke-linecap="round" stroke-linejoin="round"/>
<path d="M13.3332 6.66675H8.33317C7.89114 6.66675 7.46722 6.84234 7.15466 7.1549C6.8421 7.46746 6.6665 7.89139 6.6665 8.33341C6.6665 8.77544 6.8421 9.19937 7.15466 9.51193C7.46722 9.82449 7.89114 10.0001 8.33317 10.0001H11.6665C12.1085 10.0001 12.5325 10.1757 12.845 10.4882C13.1576 10.8008 13.3332 11.2247 13.3332 11.6667C13.3332 12.1088 13.1576 12.5327 12.845 12.8453C12.5325 13.1578 12.1085 13.3334 11.6665 13.3334H6.6665" stroke="#F97316" stroke-width="1.66667" stroke-linecap="round" stroke-linejoin="round"/>
<path d="M10 14.5834V5.41675" stroke="#F97316" stroke-width="1.66667" stroke-linecap="round" stroke-linejoin="round"/>
</svg>
