<?xml version="1.0" encoding="iso-8859-1"?>
<!-- Uploaded to: SVG Repo, www.svgrepo.com, Generator: SVG Repo Mixer Tools -->
<svg version="1.1" id="Layer_1" xmlns="http://www.w3.org/2000/svg" xmlns:xlink="http://www.w3.org/1999/xlink" 
	 viewBox="0 0 512 512" xml:space="preserve">
<path style="fill:#7ED63E;" d="M469.333,0h-68.267H307.2H256h-51.2h-93.867H42.667c-14.138,0-25.6,11.462-25.6,25.6v68.267v119.467
	V281.6v25.6V384v102.4c0,14.138,11.462,25.6,25.6,25.6H204.8H256h51.2h162.133c14.138,0,25.6-11.462,25.6-25.6V384v-76.8v-25.6
	v-68.267V93.867V25.6C494.933,11.462,483.471,0,469.333,0z"/>
<path style="fill:#A4E276;" d="M379.046,256c8.859-31.206,33.483-55.827,64.688-64.689v-75.421
	c-31.205-8.863-55.828-33.483-64.688-64.689H332.8V256H379.046z"/>
<g>
	<rect x="332.8" y="409.6" style="fill:#B6E892;" width="110.933" height="51.2"/>
	<polygon style="fill:#B6E892;" points="443.733,358.4 443.733,307.2 401.067,307.2 332.8,307.2 332.8,358.4 	"/>
</g>
<path style="fill:#FFB655;" d="M332.8,486.4v-25.6v-51.2V384v-25.6v-51.2H256V512h51.2C321.338,512,332.8,500.538,332.8,486.4z"/>
<path style="fill:#EE8700;" d="M332.8,307.2v-25.6V256V51.2V25.6c0-14.138-11.462-25.6-25.6-25.6H256v307.2H332.8z"/>
<path style="fill:#6DC82A;" d="M469.333,0h-68.267H307.2c14.138,0,25.6,11.462,25.6,25.6v25.6h46.246
	c8.859,31.206,33.483,55.827,64.688,64.689v75.421c-31.205,8.861-55.828,33.483-64.688,64.689H332.8v25.6v25.6h68.267h42.667h51.2
	v-25.6v-68.267V93.867V25.6C494.933,11.462,483.471,0,469.333,0z"/>
<path style="fill:#64C37D;" d="M68.267,115.889v75.421c31.208,8.861,55.84,33.481,64.7,64.689H179.2V51.2h-46.246
	C124.095,82.406,99.471,107.027,68.267,115.889z"/>
<g>
	<rect x="68.267" y="409.6" style="fill:#7CCC92;" width="110.933" height="51.2"/>
	<polygon style="fill:#7CCC92;" points="110.933,307.2 68.267,307.2 68.267,358.4 179.2,358.4 179.2,307.2 110.966,307.2 	"/>
</g>
<path style="fill:#EE8700;" d="M179.2,307.2v51.2V384v25.6v51.2v25.6c0,14.138,11.462,25.6,25.6,25.6H256V307.2H179.2z"/>
<path style="fill:#CC7400;" d="M179.2,25.6v25.6V256v25.6v25.6H256V0h-51.2C190.662,0,179.2,11.462,179.2,25.6z"/>
<path style="fill:#368B4C;" d="M179.2,256h-46.234c-8.859-31.208-33.492-55.828-64.7-64.689v-75.421
	c31.205-8.863,55.828-33.483,64.688-64.689H179.2V25.6c0-14.138,11.462-25.6,25.6-25.6h-93.867H42.667
	c-14.138,0-25.6,11.462-25.6,25.6v68.267v119.467V281.6v25.6h51.2h42.667h0.032H179.2v-25.6V256z"/>
<path style="fill:#3FA45A;" d="M68.267,307.2h-51.2V384v102.4c0,14.138,11.462,25.6,25.6,25.6H204.8
	c-14.138,0-25.6-11.462-25.6-25.6v-25.6H68.267v-51.2H179.2V384v-25.6H68.267V307.2z"/>
</svg>