<svg width="20" height="20" viewBox="0 0 20 20" fill="none" xmlns="http://www.w3.org/2000/svg">
<path d="M15.8334 14.1666H17.5C18 14.1666 18.3334 13.8333 18.3334 13.3333V10.8333C18.3334 10.0833 17.75 9.41659 17.0834 9.24992C15.5834 8.83325 13.3334 8.33325 13.3334 8.33325C13.3334 8.33325 12.25 7.16659 11.5 6.41659C11.0834 6.08325 10.5834 5.83325 10 5.83325H4.16669C3.66669 5.83325 3.25002 6.16659 3.00002 6.58325L1.83335 8.99992C1.723 9.32177 1.66669 9.65967 1.66669 9.99992V13.3333C1.66669 13.8333 2.00002 14.1666 2.50002 14.1666H4.16669" stroke="#F59E0B" stroke-width="1.66667" stroke-linecap="round" stroke-linejoin="round"/>
<path d="M5.83335 15.8333C6.75383 15.8333 7.50002 15.0871 7.50002 14.1667C7.50002 13.2462 6.75383 12.5 5.83335 12.5C4.91288 12.5 4.16669 13.2462 4.16669 14.1667C4.16669 15.0871 4.91288 15.8333 5.83335 15.8333Z" stroke="#F59E0B" stroke-width="1.66667" stroke-linecap="round" stroke-linejoin="round"/>
<path d="M7.5 14.1667H12.5" stroke="#F59E0B" stroke-width="1.66667" stroke-linecap="round" stroke-linejoin="round"/>
<path d="M14.1667 15.8333C15.0871 15.8333 15.8333 15.0871 15.8333 14.1667C15.8333 13.2462 15.0871 12.5 14.1667 12.5C13.2462 12.5 12.5 13.2462 12.5 14.1667C12.5 15.0871 13.2462 15.8333 14.1667 15.8333Z" stroke="#F59E0B" stroke-width="1.66667" stroke-linecap="round" stroke-linejoin="round"/>
</svg>
