<svg width="16" height="16" viewBox="0 0 16 16" fill="none" xmlns="http://www.w3.org/2000/svg">
<g clip-path="url(#clip0_873_398)">
<path d="M14.5304 6.66511C14.8347 8.15895 14.6178 9.71198 13.9157 11.0652C13.2137 12.4185 12.0689 13.4901 10.6723 14.1015C9.27573 14.7129 7.71177 14.827 6.24125 14.4248C4.77072 14.0226 3.48251 13.1285 2.59146 11.8915C1.7004 10.6544 1.26034 9.14933 1.34468 7.62714C1.42903 6.10494 2.03266 4.65766 3.05493 3.52666C4.07719 2.39566 5.45629 1.64929 6.96225 1.41203C8.4682 1.17477 10.01 1.46096 11.3305 2.22286" stroke="white" stroke-width="1.33301" stroke-linecap="round" stroke-linejoin="round"/>
<path d="M5.99854 7.33154L7.99805 9.33105L14.6631 2.66602" stroke="white" stroke-width="1.33301" stroke-linecap="round" stroke-linejoin="round"/>
</g>
<defs>
<clipPath id="clip0_873_398">
<rect width="15.9961" height="15.9961" fill="white"/>
</clipPath>
</defs>
</svg>
