<svg width="16" height="16" viewBox="0 0 16 16" fill="none" xmlns="http://www.w3.org/2000/svg">
<g clip-path="url(#clip0_70_28816)">
<path d="M1.3743 8.23007C1.31875 8.08043 1.31875 7.91582 1.3743 7.76618C1.9153 6.4544 2.83362 5.3328 4.01284 4.54357C5.19205 3.75433 6.57906 3.33301 7.99802 3.33301C9.41698 3.33301 10.804 3.75433 11.9832 4.54357C13.1624 5.3328 14.0807 6.4544 14.6217 7.76618C14.6773 7.91582 14.6773 8.08043 14.6217 8.23007C14.0807 9.54184 13.1624 10.6634 11.9832 11.4527C10.804 12.2419 9.41698 12.6632 7.99802 12.6632C6.57906 12.6632 5.19205 12.2419 4.01284 11.4527C2.83362 10.6634 1.9153 9.54184 1.3743 8.23007Z" stroke="#0C4A6E" stroke-width="1.33301" stroke-linecap="round" stroke-linejoin="round"/>
<path d="M7.99805 9.99756C9.10235 9.99756 9.99756 9.10235 9.99756 7.99805C9.99756 6.89375 9.10235 5.99854 7.99805 5.99854C6.89375 5.99854 5.99854 6.89375 5.99854 7.99805C5.99854 9.10235 6.89375 9.99756 7.99805 9.99756Z" stroke="#0C4A6E" stroke-width="1.33301" stroke-linecap="round" stroke-linejoin="round"/>
</g>
<defs>
<clipPath id="clip0_70_28816">
<rect width="15.9961" height="15.9961" fill="white"/>
</clipPath>
</defs>
</svg>
