<svg width="16" height="16" viewBox="0 0 16 16" fill="none" xmlns="http://www.w3.org/2000/svg">
<g clip-path="url(#clip0_70_28821)">
<path d="M7.99805 1.99951H3.33252C2.97898 1.99951 2.63993 2.13995 2.38994 2.38994C2.13995 2.63993 1.99951 2.97898 1.99951 3.33252V12.6636C1.99951 13.0171 2.13995 13.3562 2.38994 13.6062C2.63993 13.8561 2.97898 13.9966 3.33252 13.9966H12.6636C13.0171 13.9966 13.3562 13.8561 13.6062 13.6062C13.8561 13.3562 13.9966 13.0171 13.9966 12.6636V7.99805" stroke="#0C4A6E" stroke-width="1.33301" stroke-linecap="round" stroke-linejoin="round"/>
<path d="M12.247 1.74956C12.5121 1.48441 12.8718 1.33545 13.2467 1.33545C13.6217 1.33545 13.9813 1.48441 14.2465 1.74956C14.5117 2.01471 14.6606 2.37434 14.6606 2.74932C14.6606 3.1243 14.5117 3.48392 14.2465 3.74907L8.2393 9.75694C8.08104 9.91507 7.88553 10.0308 7.67077 10.0935L5.75591 10.6534C5.69856 10.6701 5.63776 10.6711 5.57989 10.6563C5.52202 10.6415 5.4692 10.6114 5.42695 10.5691C5.38471 10.5269 5.3546 10.474 5.33977 10.4162C5.32495 10.3583 5.32595 10.2975 5.34268 10.2402L5.90254 8.32529C5.96554 8.11071 6.08152 7.91543 6.23979 7.75743L12.247 1.74956Z" stroke="#0C4A6E" stroke-width="1.33301" stroke-linecap="round" stroke-linejoin="round"/>
</g>
<defs>
<clipPath id="clip0_70_28821">
<rect width="15.9961" height="15.9961" fill="white"/>
</clipPath>
</defs>
</svg>
