<svg width="16" height="16" viewBox="0 0 16 16" fill="none" xmlns="http://www.w3.org/2000/svg">
<g clip-path="url(#clip0_70_27350)">
<path d="M7.15356 3.38309C8.70611 3.19807 10.2765 3.52626 11.6251 4.31756C12.9736 5.10885 14.026 6.31975 14.6217 7.76535C14.6773 7.91499 14.6773 8.0796 14.6217 8.22924C14.3768 8.82309 14.0531 9.38129 13.6593 9.88883" stroke="#0C4A6E" stroke-width="1.33301" stroke-linecap="round" stroke-linejoin="round"/>
<path d="M9.38701 9.43644C9.0099 9.80067 8.50482 10.0022 7.98055 9.99765C7.45629 9.9931 6.95478 9.78281 6.58406 9.41208C6.21333 9.04136 6.00304 8.53985 5.99849 8.01559C5.99393 7.49132 6.19547 6.98624 6.5597 6.60913" stroke="#0C4A6E" stroke-width="1.33301" stroke-linecap="round" stroke-linejoin="round"/>
<path d="M11.6498 11.6633C10.7657 12.187 9.77922 12.5144 8.75741 12.6233C7.73559 12.7322 6.7023 12.62 5.72766 12.2944C4.75302 11.9687 3.85982 11.4372 3.10869 10.736C2.35755 10.0347 1.76604 9.1801 1.3743 8.2301C1.31875 8.08045 1.31875 7.91585 1.3743 7.76621C1.96525 6.33313 3.00502 5.13035 4.33758 4.33838" stroke="#0C4A6E" stroke-width="1.33301" stroke-linecap="round" stroke-linejoin="round"/>
<path d="M1.33301 1.33301L14.6631 14.6631" stroke="#0C4A6E" stroke-width="1.33301" stroke-linecap="round" stroke-linejoin="round"/>
</g>
<defs>
<clipPath id="clip0_70_27350">
<rect width="15.9961" height="15.9961" fill="white"/>
</clipPath>
</defs>
</svg>
