<svg width="16" height="16" viewBox="0 0 16 16" fill="none" xmlns="http://www.w3.org/2000/svg">
<g clip-path="url(#clip0_70_15819)">
<path d="M1.37418 8.23007C1.31863 8.08043 1.31863 7.91582 1.37418 7.76618C1.91518 6.4544 2.8335 5.3328 4.01272 4.54357C5.19193 3.75433 6.57894 3.33301 7.9979 3.33301C9.41685 3.33301 10.8039 3.75433 11.9831 4.54357C13.1623 5.3328 14.0806 6.4544 14.6216 7.76618C14.6772 7.91582 14.6772 8.08043 14.6216 8.23007C14.0806 9.54184 13.1623 10.6634 11.9831 11.4527C10.8039 12.2419 9.41685 12.6632 7.9979 12.6632C6.57894 12.6632 5.19193 12.2419 4.01272 11.4527C2.8335 10.6634 1.91518 9.54184 1.37418 8.23007Z" stroke="#0C4A6E" stroke-width="1.33301" stroke-linecap="round" stroke-linejoin="round"/>
<path d="M7.99805 9.99756C9.10235 9.99756 9.99756 9.10235 9.99756 7.99805C9.99756 6.89375 9.10235 5.99854 7.99805 5.99854C6.89375 5.99854 5.99854 6.89375 5.99854 7.99805C5.99854 9.10235 6.89375 9.99756 7.99805 9.99756Z" stroke="#0C4A6E" stroke-width="1.33301" stroke-linecap="round" stroke-linejoin="round"/>
</g>
<defs>
<clipPath id="clip0_70_15819">
<rect width="15.9961" height="15.9961" fill="white"/>
</clipPath>
</defs>
</svg>
