<svg width="16" height="16" viewBox="0 0 16 16" fill="none" xmlns="http://www.w3.org/2000/svg">
<g clip-path="url(#clip0_70_25935)">
<path d="M7.68144 1.52956C7.71064 1.47054 7.75576 1.42087 7.81171 1.38614C7.86765 1.35141 7.93218 1.33301 7.99803 1.33301C8.06387 1.33301 8.1284 1.35141 8.18435 1.38614C8.24029 1.42087 8.28541 1.47054 8.31462 1.52956L9.85424 4.64813C9.95567 4.85339 10.1054 5.03097 10.2905 5.16564C10.4757 5.3003 10.6908 5.38802 10.9173 5.42127L14.3605 5.92515C14.4257 5.9346 14.487 5.96212 14.5374 6.0046C14.5878 6.04707 14.6254 6.1028 14.6457 6.16549C14.6661 6.22818 14.6686 6.29533 14.6528 6.35933C14.637 6.42334 14.6036 6.48165 14.5564 6.52767L12.0664 8.95241C11.9022 9.11244 11.7793 9.30998 11.7083 9.52802C11.6374 9.74607 11.6205 9.97809 11.6591 10.2041L12.247 13.6299C12.2585 13.6951 12.2515 13.7623 12.2267 13.8237C12.2019 13.8851 12.1603 13.9383 12.1067 13.9772C12.0531 14.0161 11.9897 14.0392 11.9236 14.0438C11.8576 14.0484 11.7916 14.0343 11.7331 14.0032L8.6552 12.3849C8.45239 12.2784 8.22676 12.2228 7.99769 12.2228C7.76863 12.2228 7.54299 12.2784 7.34019 12.3849L4.26294 14.0032C4.20451 14.0341 4.13857 14.048 4.07262 14.0433C4.00667 14.0386 3.94336 14.0155 3.88989 13.9767C3.83642 13.9378 3.79494 13.8847 3.77016 13.8234C3.74538 13.7621 3.7383 13.6951 3.74973 13.6299L4.33692 10.2048C4.37571 9.97865 4.3589 9.74648 4.28796 9.5283C4.21701 9.31012 4.09405 9.11247 3.92969 8.95241L1.43963 6.52834C1.39203 6.48237 1.35831 6.42396 1.34229 6.35976C1.32628 6.29556 1.32861 6.22815 1.34904 6.16522C1.36946 6.10228 1.40715 6.04635 1.45781 6.00379C1.50847 5.96122 1.57006 5.93375 1.63558 5.92448L5.07807 5.42127C5.30485 5.38828 5.52022 5.30067 5.70564 5.16599C5.89106 5.03131 6.04097 4.85359 6.14248 4.64813L7.68144 1.52956Z" fill="#F0B100" stroke="#F0B100" stroke-width="1.33301" stroke-linecap="round" stroke-linejoin="round"/>
</g>
<defs>
<clipPath id="clip0_70_25935">
<rect width="15.9961" height="15.9961" fill="white"/>
</clipPath>
</defs>
</svg>
