<svg width="15" height="15" viewBox="0 0 15 15" fill="none" xmlns="http://www.w3.org/2000/svg">
<path d="M7.01615 0.863052C7.04536 0.80404 7.09048 0.754366 7.14642 0.719637C7.20236 0.684907 7.2669 0.666504 7.33274 0.666504C7.39859 0.666504 7.46312 0.684907 7.51906 0.719637C7.575 0.754366 7.62012 0.80404 7.64933 0.863052L9.18896 3.98162C9.29038 4.18688 9.4401 4.36447 9.62527 4.49913C9.81043 4.6338 10.0255 4.72152 10.252 4.75477L13.6952 5.25865C13.7604 5.2681 13.8217 5.29562 13.8721 5.33809C13.9226 5.38057 13.9601 5.4363 13.9805 5.49899C14.0009 5.56168 14.0033 5.62883 13.9875 5.69283C13.9717 5.75683 13.9383 5.81514 13.8911 5.86116L11.4011 8.28591C11.2369 8.44593 11.114 8.64347 11.0431 8.86152C10.9721 9.07956 10.9552 9.31158 10.9938 9.5376L11.5817 12.9634C11.5932 13.0286 11.5862 13.0958 11.5614 13.1572C11.5366 13.2186 11.495 13.2718 11.4414 13.3107C11.3879 13.3496 11.3244 13.3727 11.2584 13.3773C11.1923 13.3819 11.1263 13.3678 11.0678 13.3367L7.98992 11.7184C7.78711 11.6119 7.56147 11.5563 7.33241 11.5563C7.10335 11.5563 6.87771 11.6119 6.6749 11.7184L3.59765 13.3367C3.53922 13.3676 3.47328 13.3815 3.40734 13.3768C3.34139 13.3721 3.27808 13.349 3.22461 13.3102C3.17114 13.2713 3.12966 13.2182 3.10488 13.1569C3.0801 13.0956 3.07302 13.0285 3.08445 12.9634L3.67164 9.53827C3.71042 9.31214 3.69362 9.07998 3.62267 8.8618C3.55173 8.64362 3.42877 8.44597 3.2644 8.28591L0.774344 5.86183C0.726752 5.81586 0.693026 5.75745 0.677009 5.69325C0.660993 5.62906 0.663329 5.56165 0.683752 5.49871C0.704175 5.43578 0.741863 5.37984 0.792524 5.33728C0.843185 5.29472 0.904781 5.26724 0.970296 5.25798L4.41279 4.75477C4.63957 4.72178 4.85494 4.63417 5.04036 4.49949C5.22578 4.36481 5.37569 4.18709 5.4772 3.98162L7.01615 0.863052Z" stroke="#0C4A6E" stroke-width="1.33301" stroke-linecap="round" stroke-linejoin="round"/>
</svg>
