<svg width="16" height="16" viewBox="0 0 16 16" fill="none" xmlns="http://www.w3.org/2000/svg">
<g clip-path="url(#clip0_70_15813)">
<path d="M2.66602 1.33301V14.6631L3.99902 13.9966L5.33203 14.6631L6.66504 13.9966L7.99805 14.6631L9.33105 13.9966L10.6641 14.6631L11.9971 13.9966L13.3301 14.6631V1.33301L11.9971 1.99951L10.6641 1.33301L9.33105 1.99951L7.99805 1.33301L6.66504 1.99951L5.33203 1.33301L3.99902 1.99951L2.66602 1.33301Z" stroke="white" stroke-width="1.33301" stroke-linecap="round" stroke-linejoin="round"/>
<path d="M10.6641 5.33203H6.66504C6.3115 5.33203 5.97245 5.47247 5.72246 5.72246C5.47247 5.97245 5.33203 6.3115 5.33203 6.66504C5.33203 7.01857 5.47247 7.35763 5.72246 7.60762C5.97245 7.85761 6.3115 7.99805 6.66504 7.99805H9.33105C9.68459 7.99805 10.0236 8.13849 10.2736 8.38848C10.5236 8.63846 10.6641 8.97752 10.6641 9.33105C10.6641 9.68459 10.5236 10.0236 10.2736 10.2736C10.0236 10.5236 9.68459 10.6641 9.33105 10.6641H5.33203" stroke="white" stroke-width="1.33301" stroke-linecap="round" stroke-linejoin="round"/>
<path d="M7.99805 11.6638V4.33228" stroke="white" stroke-width="1.33301" stroke-linecap="round" stroke-linejoin="round"/>
</g>
<defs>
<clipPath id="clip0_70_15813">
<rect width="15.9961" height="15.9961" fill="white"/>
</clipPath>
</defs>
</svg>
