<svg width="15" height="15" viewBox="0 0 15 15" fill="none" xmlns="http://www.w3.org/2000/svg">
<path d="M7.72211 1.05708C7.47219 0.80707 7.13318 0.666579 6.77968 0.666504H1.99951C1.64598 0.666504 1.30692 0.806945 1.05693 1.05693C0.806945 1.30692 0.666504 1.64598 0.666504 1.99951V6.77968C0.666579 7.13318 0.80707 7.47219 1.05708 7.72211L6.85833 13.5234C7.16126 13.8244 7.57098 13.9933 7.99805 13.9933C8.42511 13.9933 8.83483 13.8244 9.13777 13.5234L13.5234 9.13777C13.8244 8.83483 13.9933 8.42511 13.9933 7.99805C13.9933 7.57098 13.8244 7.16126 13.5234 6.85833L7.72211 1.05708Z" stroke="white" stroke-width="1.33301" stroke-linecap="round" stroke-linejoin="round"/>
</svg>
