<svg width="16" height="16" viewBox="0 0 16 16" fill="none" xmlns="http://www.w3.org/2000/svg">
<g clip-path="url(#clip0_76_34243)">
<path d="M9.68817 14.4538C9.71349 14.5169 9.75751 14.5707 9.81432 14.6081C9.87113 14.6454 9.93801 14.6645 10.006 14.6628C10.074 14.6611 10.1398 14.6386 10.1946 14.5983C10.2494 14.5581 10.2906 14.5021 10.3127 14.4378L14.645 1.77419C14.6663 1.71513 14.6704 1.65122 14.6567 1.58994C14.643 1.52865 14.6122 1.47252 14.5678 1.42813C14.5234 1.38373 14.4673 1.35289 14.406 1.33922C14.3447 1.32556 14.2808 1.32963 14.2217 1.35096L1.55816 5.68323C1.49384 5.70529 1.4378 5.7465 1.39758 5.80132C1.35735 5.85614 1.33486 5.92196 1.33312 5.98993C1.33138 6.05791 1.35047 6.12479 1.38784 6.1816C1.4252 6.23841 1.47905 6.28243 1.54216 6.30775L6.82754 8.42723C6.99462 8.49413 7.14643 8.59416 7.2738 8.72131C7.40118 8.84846 7.50149 9.00009 7.56869 9.16705L9.68817 14.4538Z" stroke="white" stroke-width="1.33301" stroke-linecap="round" stroke-linejoin="round"/>
<path d="M14.566 1.43091L7.27441 8.72179" stroke="white" stroke-width="1.33301" stroke-linecap="round" stroke-linejoin="round"/>
</g>
<defs>
<clipPath id="clip0_76_34243">
<rect width="15.9961" height="15.9961" fill="white"/>
</clipPath>
</defs>
</svg>
