<svg width="16" height="16" viewBox="0 0 16 16" fill="none" xmlns="http://www.w3.org/2000/svg">
<g clip-path="url(#clip0_70_28878)">
<path d="M14.5305 6.66487C14.8349 8.1587 14.6179 9.71174 13.9159 11.065C13.2138 12.4182 12.069 13.4899 10.6724 14.1013C9.27585 14.7126 7.71189 14.8267 6.24137 14.4246C4.77084 14.0224 3.48264 13.1282 2.59158 11.8912C1.70052 10.6542 1.26047 9.14909 1.34481 7.62689C1.42915 6.1047 2.03278 4.65742 3.05505 3.52642C4.07731 2.39541 5.45641 1.64905 6.96237 1.41179C8.46832 1.17453 10.0101 1.46071 11.3306 2.22262" stroke="#0C4A6E" stroke-width="1.33301" stroke-linecap="round" stroke-linejoin="round"/>
<path d="M5.99854 7.33154L7.99805 9.33105L14.6631 2.66602" stroke="#0C4A6E" stroke-width="1.33301" stroke-linecap="round" stroke-linejoin="round"/>
</g>
<defs>
<clipPath id="clip0_70_28878">
<rect width="15.9961" height="15.9961" fill="white"/>
</clipPath>
</defs>
</svg>
