<svg width="16" height="16" viewBox="0 0 16 16" fill="none" xmlns="http://www.w3.org/2000/svg">
<path d="M7.99805 1.99951H3.33252C2.97898 1.99951 2.63993 2.13995 2.38994 2.38994C2.13995 2.63993 1.99951 2.97898 1.99951 3.33252V12.6636C1.99951 13.0171 2.13995 13.3562 2.38994 13.6062C2.63993 13.8561 2.97898 13.9966 3.33252 13.9966H12.6636C13.0171 13.9966 13.3562 13.8561 13.6062 13.6062C13.8561 13.3562 13.9966 13.0171 13.9966 12.6636V7.99805" stroke="white" stroke-width="1.33301" stroke-linecap="round" stroke-linejoin="round"/>
<path d="M12.2472 1.74956C12.5124 1.48441 12.872 1.33545 13.247 1.33545C13.622 1.33545 13.9816 1.48441 14.2467 1.74956C14.5119 2.01471 14.6609 2.37434 14.6609 2.74932C14.6609 3.1243 14.5119 3.48392 14.2467 3.74907L8.23955 9.75694C8.08128 9.91507 7.88577 10.0308 7.67102 10.0935L5.75615 10.6534C5.6988 10.6701 5.63801 10.6711 5.58013 10.6563C5.52226 10.6415 5.46944 10.6114 5.4272 10.5691C5.38495 10.5269 5.35484 10.474 5.34002 10.4162C5.32519 10.3583 5.32619 10.2975 5.34292 10.2402L5.90278 8.32529C5.96579 8.11071 6.08176 7.91543 6.24003 7.75743L12.2472 1.74956Z" stroke="white" stroke-width="1.33301" stroke-linecap="round" stroke-linejoin="round"/>
</svg>
