<svg width="20" height="20" viewBox="0 0 20 20" fill="none" xmlns="http://www.w3.org/2000/svg">
<path d="M12.9167 6.24992L14.8334 8.16659C14.9891 8.31927 15.1986 8.4048 15.4167 8.4048C15.6348 8.4048 15.8442 8.31927 16 8.16659L17.75 6.41659C17.9027 6.26081 17.9882 6.05138 17.9882 5.83325C17.9882 5.61512 17.9027 5.40569 17.75 5.24992L15.8334 3.33325" stroke="#155DFC" stroke-width="1.66667" stroke-linecap="round" stroke-linejoin="round"/>
<path d="M17.5 1.66675L9.5 9.66675" stroke="#155DFC" stroke-width="1.66667" stroke-linecap="round" stroke-linejoin="round"/>
<path d="M6.25002 17.4999C8.78133 17.4999 10.8334 15.4479 10.8334 12.9166C10.8334 10.3853 8.78133 8.33325 6.25002 8.33325C3.71872 8.33325 1.66669 10.3853 1.66669 12.9166C1.66669 15.4479 3.71872 17.4999 6.25002 17.4999Z" stroke="#155DFC" stroke-width="1.66667" stroke-linecap="round" stroke-linejoin="round"/>
</svg>
