<svg width="17" height="19" viewBox="0 0 17 19" fill="none" xmlns="http://www.w3.org/2000/svg">
<path d="M1.66952 10.8355C1.51182 10.836 1.35721 10.7918 1.22365 10.708C1.09008 10.6241 0.983047 10.5041 0.914977 10.3619C0.846907 10.2196 0.820596 10.061 0.839102 9.90436C0.857607 9.74776 0.920169 9.59962 1.01952 9.47715L9.26952 0.97715C9.3314 0.905718 9.41573 0.857447 9.50867 0.840261C9.6016 0.823074 9.69762 0.837994 9.78096 0.88257C9.8643 0.927146 9.93001 0.998731 9.9673 1.08557C10.0046 1.17242 10.0112 1.26936 9.98618 1.36048L8.38619 6.37715C8.33901 6.50342 8.32316 6.63925 8.34001 6.77299C8.35686 6.90673 8.4059 7.03438 8.48293 7.14501C8.55995 7.25563 8.66266 7.34591 8.78225 7.40812C8.90183 7.47032 9.03472 7.50259 9.16952 7.50215H15.0029C15.1605 7.50161 15.3152 7.54583 15.4487 7.62967C15.5823 7.71351 15.6893 7.83352 15.7574 7.97577C15.8255 8.11802 15.8518 8.27666 15.8333 8.43327C15.8148 8.58988 15.7522 8.73802 15.6529 8.86048L7.40285 17.3605C7.34097 17.4319 7.25664 17.4802 7.1637 17.4974C7.07077 17.5146 6.97475 17.4996 6.89141 17.4551C6.80807 17.4105 6.74236 17.3389 6.70507 17.2521C6.66778 17.1652 6.66112 17.0683 6.68619 16.9771L8.28618 11.9605C8.33336 11.8342 8.34921 11.6984 8.33236 11.5646C8.31551 11.4309 8.26647 11.3032 8.18944 11.1926C8.11242 11.082 8.00971 10.9917 7.89012 10.9295C7.77054 10.8673 7.63765 10.835 7.50285 10.8355H1.66952Z" stroke="#4A5565" stroke-width="1.66667" stroke-linecap="round" stroke-linejoin="round"/>
</svg>
