<svg width="20" height="20" viewBox="0 0 20 20" fill="none" xmlns="http://www.w3.org/2000/svg">
<path d="M3.33334 1.66666V18.3333L5.00001 17.5L6.66668 18.3333L8.33334 17.5L10 18.3333L11.6667 17.5L13.3333 18.3333L15 17.5L16.6667 18.3333V1.66666L15 2.49999L13.3333 1.66666L11.6667 2.49999L10 1.66666L8.33334 2.49999L6.66668 1.66666L5.00001 2.49999L3.33334 1.66666Z" stroke="#4A5565" stroke-width="1.66667" stroke-linecap="round" stroke-linejoin="round"/>
<path d="M13.3333 6.66666H8.33332C7.8913 6.66666 7.46737 6.84225 7.15481 7.15481C6.84225 7.46737 6.66666 7.8913 6.66666 8.33332C6.66666 8.77535 6.84225 9.19927 7.15481 9.51183C7.46737 9.82439 7.8913 9.99999 8.33332 9.99999H11.6667C12.1087 9.99999 12.5326 10.1756 12.8452 10.4881C13.1577 10.8007 13.3333 11.2246 13.3333 11.6667C13.3333 12.1087 13.1577 12.5326 12.8452 12.8452C12.5326 13.1577 12.1087 13.3333 11.6667 13.3333H6.66666" stroke="#4A5565" stroke-width="1.66667" stroke-linecap="round" stroke-linejoin="round"/>
<path d="M10 14.5833V5.41666" stroke="#4A5565" stroke-width="1.66667" stroke-linecap="round" stroke-linejoin="round"/>
</svg>
