<svg width="16" height="16" viewBox="0 0 16 16" fill="none" xmlns="http://www.w3.org/2000/svg">
<path d="M8 2H3.33333C2.97971 2 2.64057 2.14048 2.39052 2.39052C2.14048 2.64057 2 2.97971 2 3.33333V12.6667C2 13.0203 2.14048 13.3594 2.39052 13.6095C2.64057 13.8595 2.97971 14 3.33333 14H12.6667C13.0203 14 13.3594 13.8595 13.6095 13.6095C13.8595 13.3594 14 13.0203 14 12.6667V8" stroke="#0369A1" stroke-width="1.33333" stroke-linecap="round" stroke-linejoin="round"/>
<path d="M12.2504 1.75015C12.5156 1.48493 12.8753 1.33594 13.2504 1.33594C13.6255 1.33594 13.9852 1.48493 14.2504 1.75015C14.5156 2.01537 14.6646 2.37508 14.6646 2.75015C14.6646 3.12522 14.5156 3.48493 14.2504 3.75015L8.24172 9.75948C8.08342 9.91765 7.88786 10.0334 7.67305 10.0962L5.75772 10.6562C5.70036 10.6729 5.63955 10.6739 5.58166 10.6591C5.52377 10.6442 5.47094 10.6141 5.42869 10.5719C5.38643 10.5296 5.35631 10.4768 5.34148 10.4189C5.32665 10.361 5.32766 10.3002 5.34439 10.2428L5.90439 8.32748C5.96741 8.11285 6.08341 7.91752 6.24172 7.75948L12.2504 1.75015Z" stroke="#0369A1" stroke-width="1.33333" stroke-linecap="round" stroke-linejoin="round"/>
</svg>
