<svg width="16" height="16" viewBox="0 0 16 16" fill="none" xmlns="http://www.w3.org/2000/svg">
<path d="M2.66603 9.33105C2.5399 9.33148 2.41625 9.29611 2.30942 9.22906C2.20259 9.16201 2.11699 9.06602 2.06254 8.95225C2.0081 8.83848 1.98706 8.71159 2.00186 8.58634C2.01666 8.46108 2.0667 8.3426 2.14616 8.24465L8.74455 1.44631C8.79404 1.38918 8.86149 1.35057 8.93582 1.33683C9.01015 1.32308 9.08695 1.33501 9.1536 1.37066C9.22025 1.40632 9.27281 1.46357 9.30263 1.53303C9.33246 1.60248 9.33779 1.68002 9.31774 1.7529L8.03805 5.76525C8.00032 5.86625 7.98764 5.97488 8.00112 6.08185C8.0146 6.18881 8.05382 6.29091 8.11543 6.37939C8.17703 6.46787 8.25918 6.54008 8.35482 6.58983C8.45047 6.63958 8.55676 6.66539 8.66457 6.66504H13.3301C13.4562 6.66461 13.5799 6.69997 13.6867 6.76703C13.7935 6.83408 13.8791 6.93007 13.9336 7.04384C13.988 7.15761 14.0091 7.28449 13.9943 7.40975C13.9795 7.535 13.9294 7.65349 13.85 7.75144L7.25158 14.5498C7.20208 14.6069 7.13463 14.6455 7.0603 14.6593C6.98597 14.673 6.90918 14.6611 6.84252 14.6254C6.77587 14.5898 6.72332 14.5325 6.69349 14.4631C6.66366 14.3936 6.65834 14.3161 6.67838 14.2432L7.95807 10.2308C7.99581 10.1298 8.00848 10.0212 7.995 9.91424C7.98153 9.80727 7.9423 9.70517 7.8807 9.6167C7.81909 9.52822 7.73694 9.45601 7.6413 9.40626C7.54565 9.35651 7.43937 9.3307 7.33156 9.33105H2.66603Z" stroke="#0C4A6E" stroke-width="1.33301" stroke-linecap="round" stroke-linejoin="round"/>
</svg>
