<svg width="24" height="24" viewBox="0 0 24 24" fill="none" xmlns="http://www.w3.org/2000/svg">
<path d="M21.9947 16.9158V19.9151C21.9958 20.1935 21.9388 20.4691 21.8273 20.7243C21.7157 20.9794 21.5521 21.2084 21.3469 21.3966C21.1418 21.5848 20.8996 21.7282 20.6358 21.8174C20.372 21.9066 20.0925 21.9397 19.8152 21.9146C16.7388 21.5803 13.7837 20.5291 11.1874 18.8454C8.77177 17.3104 6.72378 15.2624 5.18882 12.8468C3.49921 10.2387 2.44773 7.26919 2.11956 4.17895C2.09458 3.90249 2.12744 3.62385 2.21604 3.36078C2.30465 3.09771 2.44706 2.85597 2.63421 2.65095C2.82135 2.44593 3.04914 2.28213 3.30307 2.16997C3.55699 2.05781 3.83149 1.99975 4.10908 1.99949H7.10835C7.59353 1.99471 8.06391 2.16652 8.43179 2.4829C8.79967 2.79928 9.03995 3.23863 9.10786 3.71907C9.23445 4.6789 9.46922 5.62133 9.80769 6.52838C9.9422 6.88622 9.97131 7.27511 9.89157 7.64899C9.81184 8.02286 9.62659 8.36604 9.3578 8.63787L8.08811 9.90756C9.51132 12.4105 11.5837 14.4829 14.0866 15.9061L15.3563 14.6364C15.6282 14.3676 15.9713 14.1824 16.3452 14.1026C16.7191 14.0229 17.108 14.052 17.4658 14.1865C18.3729 14.525 19.3153 14.7597 20.2751 14.8863C20.7608 14.9549 21.2043 15.1995 21.5214 15.5737C21.8384 15.9479 22.0069 16.4255 21.9947 16.9158Z" stroke="white" stroke-width="1.99951" stroke-linecap="round" stroke-linejoin="round"/>
</svg>
