<svg width="24" height="24" viewBox="0 0 24 24" fill="none" xmlns="http://www.w3.org/2000/svg">
<path d="M14.9963 20.9949V12.9968C14.9963 12.7317 14.891 12.4774 14.7035 12.2899C14.516 12.1024 14.2617 11.9971 13.9966 11.9971H9.99756C9.73241 11.9971 9.47812 12.1024 9.29062 12.2899C9.10313 12.4774 8.9978 12.7317 8.9978 12.9968V20.9949" stroke="white" stroke-width="1.99951" stroke-linecap="round" stroke-linejoin="round"/>
<path d="M2.99927 9.99759C2.9992 9.70673 3.06259 9.41935 3.18501 9.15551C3.30743 8.89167 3.48595 8.65771 3.70809 8.46996L10.7064 2.47243C11.0673 2.16741 11.5245 2.00006 11.9971 2.00006C12.4696 2.00006 12.9269 2.16741 13.2878 2.47243L20.286 8.46996C20.5082 8.65771 20.6867 8.89167 20.8091 9.15551C20.9316 9.41935 20.9949 9.70673 20.9949 9.99759V18.9954C20.9949 19.5257 20.7842 20.0343 20.4092 20.4093C20.0342 20.7842 19.5257 20.9949 18.9954 20.9949H4.99878C4.46848 20.9949 3.95989 20.7842 3.58491 20.4093C3.20993 20.0343 2.99927 19.5257 2.99927 18.9954V9.99759Z" stroke="white" stroke-width="1.99951" stroke-linecap="round" stroke-linejoin="round"/>
</svg>
