<svg width="16" height="16" viewBox="0 0 16 16" fill="none" xmlns="http://www.w3.org/2000/svg">
<g clip-path="url(#clip0_70_18702)">
<path d="M7.6815 1.52962C7.71071 1.4706 7.75583 1.42093 7.81177 1.3862C7.86771 1.35147 7.93224 1.33307 7.99809 1.33307C8.06393 1.33307 8.12847 1.35147 8.18441 1.3862C8.24035 1.42093 8.28547 1.4706 8.31468 1.52962L9.8543 4.64819C9.95573 4.85345 10.1054 5.03103 10.2906 5.1657C10.4758 5.30036 10.6908 5.38808 10.9174 5.42133L14.3605 5.92521C14.4258 5.93466 14.4871 5.96218 14.5375 6.00466C14.5879 6.04713 14.6254 6.10287 14.6458 6.16556C14.6662 6.22825 14.6686 6.29539 14.6529 6.35939C14.6371 6.4234 14.6037 6.48171 14.5565 6.52773L12.0664 8.95247C11.9022 9.1125 11.7793 9.31004 11.7084 9.52808C11.6375 9.74613 11.6206 9.97815 11.6592 10.2042L12.247 13.63C12.2586 13.6952 12.2515 13.7623 12.2267 13.8237C12.2019 13.8851 12.1604 13.9383 12.1068 13.9772C12.0532 14.0162 11.9898 14.0392 11.9237 14.0438C11.8576 14.0484 11.7916 14.0344 11.7332 14.0032L8.65526 12.385C8.45245 12.2785 8.22682 12.2228 7.99775 12.2228C7.76869 12.2228 7.54305 12.2785 7.34025 12.385L4.263 14.0032C4.20457 14.0342 4.13863 14.0481 4.07268 14.0434C4.00673 14.0387 3.94342 14.0156 3.88995 13.9767C3.83648 13.9378 3.795 13.8847 3.77022 13.8234C3.74544 13.7621 3.73837 13.6951 3.74979 13.63L4.33698 10.2048C4.37577 9.97871 4.35896 9.74654 4.28802 9.52836C4.21707 9.31018 4.09411 9.11253 3.92975 8.95247L1.43969 6.5284C1.3921 6.48243 1.35837 6.42402 1.34235 6.35982C1.32634 6.29562 1.32867 6.22821 1.3491 6.16528C1.36952 6.10234 1.40721 6.04641 1.45787 6.00385C1.50853 5.96128 1.57013 5.93381 1.63564 5.92454L5.07813 5.42133C5.30492 5.38834 5.52028 5.30073 5.7057 5.16605C5.89112 5.03137 6.04103 4.85365 6.14254 4.64819L7.6815 1.52962Z" stroke="#0C4A6E" stroke-width="1.33301" stroke-linecap="round" stroke-linejoin="round"/>
</g>
<defs>
<clipPath id="clip0_70_18702">
<rect width="15.9961" height="15.9961" fill="white"/>
</clipPath>
</defs>
</svg>
