<svg width="28" height="28" viewBox="0 0 28 28" fill="none" xmlns="http://www.w3.org/2000/svg">
<path d="M4.61886 16.166C4.40035 16.1668 4.18611 16.1055 4.00103 15.9893C3.81596 15.8731 3.66764 15.7068 3.57332 15.5097C3.479 15.3126 3.44254 15.0928 3.46818 14.8758C3.49383 14.6588 3.58052 14.4535 3.71818 14.2838L15.1499 2.50571C15.2356 2.40673 15.3525 2.33984 15.4813 2.31602C15.61 2.29221 15.7431 2.31288 15.8586 2.37465C15.974 2.43642 16.0651 2.53561 16.1168 2.65594C16.1684 2.77628 16.1777 2.9106 16.1429 3.03688L13.9259 9.98827C13.8605 10.1632 13.8385 10.3515 13.8619 10.5368C13.8852 10.7221 13.9532 10.899 14.0599 11.0523C14.1667 11.2055 14.309 11.3306 14.4747 11.4168C14.6404 11.503 14.8245 11.5477 15.0113 11.5471H23.0943C23.3128 11.5464 23.5271 11.6077 23.7122 11.7238C23.8972 11.84 24.0455 12.0063 24.1399 12.2034C24.2342 12.4005 24.2706 12.6203 24.245 12.8374C24.2194 13.0544 24.1327 13.2596 23.995 13.4293L12.5633 25.2074C12.4776 25.3064 12.3607 25.3733 12.2319 25.3971C12.1032 25.4209 11.9701 25.4003 11.8546 25.3385C11.7391 25.2767 11.6481 25.1775 11.5964 25.0572C11.5448 24.9369 11.5355 24.8025 11.5703 24.6763L13.7873 17.7249C13.8527 17.5499 13.8746 17.3617 13.8513 17.1764C13.8279 16.9911 13.76 16.8142 13.6533 16.6609C13.5465 16.5076 13.4042 16.3825 13.2385 16.2963C13.0728 16.2101 12.8887 16.1654 12.7019 16.166H4.61886Z" stroke="white" stroke-width="2.30943" stroke-linecap="round" stroke-linejoin="round"/>
</svg>
