<svg width="20" height="20" viewBox="0 0 20 20" fill="none" xmlns="http://www.w3.org/2000/svg">
<path d="M11.25 5.83333C11.4801 5.83333 11.6666 5.64679 11.6666 5.41667C11.6666 5.18655 11.4801 5 11.25 5C11.0199 5 10.8333 5.18655 10.8333 5.41667C10.8333 5.64679 11.0199 5.83333 11.25 5.83333Z" fill="#0369A1" stroke="#0369A1" stroke-width="1.66667" stroke-linecap="round" stroke-linejoin="round"/>
<path d="M14.5834 9.16667C14.8135 9.16667 15 8.98012 15 8.75C15 8.51988 14.8135 8.33334 14.5834 8.33334C14.3532 8.33334 14.1667 8.51988 14.1667 8.75C14.1667 8.98012 14.3532 9.16667 14.5834 9.16667Z" fill="#0369A1" stroke="#0369A1" stroke-width="1.66667" stroke-linecap="round" stroke-linejoin="round"/>
<path d="M7.08335 6.66667C7.31347 6.66667 7.50002 6.48012 7.50002 6.25C7.50002 6.01988 7.31347 5.83334 7.08335 5.83334C6.85324 5.83334 6.66669 6.01988 6.66669 6.25C6.66669 6.48012 6.85324 6.66667 7.08335 6.66667Z" fill="#0369A1" stroke="#0369A1" stroke-width="1.66667" stroke-linecap="round" stroke-linejoin="round"/>
<path d="M5.41667 10.8333C5.64679 10.8333 5.83333 10.6468 5.83333 10.4167C5.83333 10.1865 5.64679 10 5.41667 10C5.18655 10 5 10.1865 5 10.4167C5 10.6468 5.18655 10.8333 5.41667 10.8333Z" fill="#0369A1" stroke="#0369A1" stroke-width="1.66667" stroke-linecap="round" stroke-linejoin="round"/>
<path d="M10 1.66666C5.41669 1.66666 1.66669 5.41666 1.66669 10C1.66669 14.5833 5.41669 18.3333 10 18.3333C10.7717 18.3333 11.3734 17.7117 11.3734 16.9267C11.3734 16.5625 11.2234 16.2308 11.0092 15.9892C10.7675 15.7483 10.6442 15.4458 10.6442 15.0517C10.641 14.8683 10.6748 14.6861 10.7436 14.516C10.8123 14.3459 10.9146 14.1915 11.0443 14.0617C11.174 13.932 11.3285 13.8298 11.4985 13.761C11.6686 13.6923 11.8508 13.6585 12.0342 13.6617H13.6975C16.24 13.6617 18.3267 11.5758 18.3267 9.03333C18.3042 5.01 14.5509 1.66666 10 1.66666Z" stroke="#0369A1" stroke-width="1.66667" stroke-linecap="round" stroke-linejoin="round"/>
</svg>
