<svg width="13" height="13" viewBox="0 0 13 13" fill="none" xmlns="http://www.w3.org/2000/svg">
<g clip-path="url(#clip0_70_26767)">
<path d="M6.066 1.7135C6.08864 1.67237 6.12191 1.63807 6.16233 1.61419C6.20275 1.5903 6.24885 1.5777 6.2958 1.5777C6.34275 1.5777 6.38884 1.5903 6.42926 1.61419C6.46968 1.63807 6.50295 1.67237 6.5256 1.7135L8.07439 4.65368C8.11132 4.72176 8.16287 4.78082 8.22534 4.82662C8.2878 4.87242 8.35963 4.90382 8.43567 4.91856C8.5117 4.93331 8.59006 4.93104 8.66512 4.91191C8.74017 4.89278 8.81006 4.85727 8.86977 4.80793L11.1137 2.88559C11.1568 2.85055 11.2099 2.83009 11.2653 2.82714C11.3208 2.82419 11.3757 2.83892 11.4223 2.86919C11.4688 2.89946 11.5046 2.94372 11.5244 2.9956C11.5441 3.04748 11.547 3.1043 11.5324 3.15788L10.0455 8.53353C10.0152 8.64353 9.94979 8.74064 9.85928 8.81013C9.76876 8.87963 9.65806 8.91771 9.54395 8.91863H3.04817C2.93397 8.91783 2.82315 8.87979 2.73253 8.81029C2.64191 8.74079 2.57645 8.64362 2.54607 8.53353L1.05972 3.15841C1.04516 3.10483 1.04797 3.04801 1.06776 2.99613C1.08755 2.94425 1.12329 2.89999 1.16984 2.86971C1.21639 2.83944 1.27134 2.82472 1.32679 2.82767C1.38223 2.83061 1.43532 2.85108 1.47839 2.88611L3.72183 4.80846C3.78153 4.8578 3.85142 4.89331 3.92648 4.91243C4.00153 4.93156 4.07989 4.93383 4.15593 4.91909C4.23197 4.90434 4.3038 4.87294 4.36626 4.82714C4.42873 4.78135 4.48027 4.72229 4.51721 4.65421L6.066 1.7135Z" stroke="white" stroke-width="1.04932" stroke-linecap="round" stroke-linejoin="round"/>
<path d="M2.62329 11.0178H9.9685" stroke="white" stroke-width="1.04932" stroke-linecap="round" stroke-linejoin="round"/>
</g>
<defs>
<clipPath id="clip0_70_26767">
<rect width="12.5918" height="12.5918" fill="white"/>
</clipPath>
</defs>
</svg>
