<svg width="16" height="16" viewBox="0 0 16 16" fill="none" xmlns="http://www.w3.org/2000/svg">
<path d="M7.68168 1.52962C7.71089 1.4706 7.75601 1.42093 7.81195 1.3862C7.86789 1.35147 7.93243 1.33307 7.99827 1.33307C8.06411 1.33307 8.12865 1.35147 8.18459 1.3862C8.24053 1.42093 8.28565 1.4706 8.31486 1.52962L9.85448 4.64819C9.95591 4.85345 10.1056 5.03103 10.2908 5.1657C10.476 5.30036 10.691 5.38808 10.9176 5.42133L14.3607 5.92521C14.426 5.93466 14.4873 5.96218 14.5377 6.00466C14.5881 6.04713 14.6256 6.10287 14.646 6.16556C14.6664 6.22825 14.6688 6.29539 14.653 6.35939C14.6372 6.4234 14.6039 6.48171 14.5567 6.52773L12.0666 8.95247C11.9024 9.1125 11.7795 9.31004 11.7086 9.52808C11.6376 9.74613 11.6208 9.97815 11.6594 10.2042L12.2472 13.63C12.2587 13.6952 12.2517 13.7623 12.2269 13.8237C12.2021 13.8851 12.1605 13.9383 12.107 13.9772C12.0534 14.0162 11.9899 14.0392 11.9239 14.0438C11.8578 14.0484 11.7918 14.0344 11.7334 14.0032L8.65544 12.385C8.45264 12.2785 8.227 12.2228 7.99794 12.2228C7.76887 12.2228 7.54324 12.2785 7.34043 12.385L4.26318 14.0032C4.20475 14.0342 4.13881 14.0481 4.07286 14.0434C4.00691 14.0387 3.94361 14.0156 3.89014 13.9767C3.83667 13.9378 3.79518 13.8847 3.77041 13.8234C3.74563 13.7621 3.73855 13.6951 3.74997 13.63L4.33716 10.2048C4.37595 9.97871 4.35915 9.74654 4.2882 9.52836C4.21725 9.31018 4.0943 9.11253 3.92993 8.95247L1.43987 6.5284C1.39228 6.48243 1.35855 6.42402 1.34254 6.35982C1.32652 6.29562 1.32886 6.22821 1.34928 6.16528C1.3697 6.10234 1.40739 6.04641 1.45805 6.00385C1.50871 5.96128 1.57031 5.93381 1.63582 5.92454L5.07832 5.42133C5.3051 5.38834 5.52047 5.30073 5.70589 5.16605C5.8913 5.03137 6.04122 4.85365 6.14272 4.64819L7.68168 1.52962Z" stroke="#4A5565" stroke-width="1.33301" stroke-linecap="round" stroke-linejoin="round"/>
</svg>
