<svg width="16" height="16" viewBox="0 0 16 16" fill="none" xmlns="http://www.w3.org/2000/svg">
<path d="M14.6631 7.99805H10.6641L9.33105 9.99756H6.66504L5.33203 7.99805H1.33301" stroke="#4A5565" stroke-width="1.33301" stroke-linecap="round" stroke-linejoin="round"/>
<path d="M3.63245 3.40584L1.33301 7.99805V11.9971C1.33301 12.3506 1.47345 12.6897 1.72344 12.9396C1.97342 13.1896 2.31248 13.3301 2.66602 13.3301H13.3301C13.6836 13.3301 14.0227 13.1896 14.2727 12.9396C14.5226 12.6897 14.6631 12.3506 14.6631 11.9971V7.99805L12.3636 3.40584C12.2533 3.18375 12.0832 2.99685 11.8724 2.86615C11.6616 2.73546 11.4186 2.66615 11.1706 2.66602H4.82549C4.57749 2.66615 4.33445 2.73546 4.12369 2.86615C3.91293 2.99685 3.7428 3.18375 3.63245 3.40584Z" stroke="#4A5565" stroke-width="1.33301" stroke-linecap="round" stroke-linejoin="round"/>
</svg>
