<svg width="16" height="16" viewBox="0 0 16 16" fill="none" xmlns="http://www.w3.org/2000/svg">
<g clip-path="url(#clip0_70_23695)">
<path d="M7.68144 1.52962C7.71064 1.4706 7.75576 1.42093 7.81171 1.3862C7.86765 1.35147 7.93218 1.33307 7.99803 1.33307C8.06387 1.33307 8.1284 1.35147 8.18435 1.3862C8.24029 1.42093 8.28541 1.4706 8.31462 1.52962L9.85424 4.64819C9.95567 4.85345 10.1054 5.03103 10.2905 5.1657C10.4757 5.30036 10.6908 5.38808 10.9173 5.42133L14.3605 5.92521C14.4257 5.93466 14.487 5.96218 14.5374 6.00466C14.5878 6.04713 14.6254 6.10287 14.6457 6.16556C14.6661 6.22825 14.6686 6.29539 14.6528 6.35939C14.637 6.4234 14.6036 6.48171 14.5564 6.52773L12.0664 8.95247C11.9022 9.1125 11.7793 9.31004 11.7083 9.52808C11.6374 9.74613 11.6205 9.97815 11.6591 10.2042L12.247 13.63C12.2585 13.6952 12.2515 13.7623 12.2267 13.8237C12.2019 13.8851 12.1603 13.9383 12.1067 13.9772C12.0531 14.0162 11.9897 14.0392 11.9236 14.0438C11.8576 14.0484 11.7916 14.0344 11.7331 14.0032L8.6552 12.385C8.45239 12.2785 8.22676 12.2228 7.99769 12.2228C7.76863 12.2228 7.54299 12.2785 7.34019 12.385L4.26294 14.0032C4.20451 14.0342 4.13857 14.0481 4.07262 14.0434C4.00667 14.0387 3.94336 14.0156 3.88989 13.9767C3.83642 13.9378 3.79494 13.8847 3.77016 13.8234C3.74538 13.7621 3.7383 13.6951 3.74973 13.63L4.33692 10.2048C4.37571 9.97871 4.3589 9.74654 4.28796 9.52836C4.21701 9.31018 4.09405 9.11253 3.92969 8.95247L1.43963 6.5284C1.39203 6.48243 1.35831 6.42402 1.34229 6.35982C1.32628 6.29562 1.32861 6.22821 1.34904 6.16528C1.36946 6.10234 1.40715 6.04641 1.45781 6.00385C1.50847 5.96128 1.57006 5.93381 1.63558 5.92454L5.07807 5.42133C5.30485 5.38834 5.52022 5.30073 5.70564 5.16605C5.89106 5.03137 6.04097 4.85365 6.14248 4.64819L7.68144 1.52962Z" fill="#F0B100" stroke="#F0B100" stroke-width="1.33301" stroke-linecap="round" stroke-linejoin="round"/>
</g>
<defs>
<clipPath id="clip0_70_23695">
<rect width="15.9961" height="15.9961" fill="white"/>
</clipPath>
</defs>
</svg>
