<svg width="16" height="16" viewBox="0 0 16 16" fill="none" xmlns="http://www.w3.org/2000/svg">
<g clip-path="url(#clip0_70_23766)">
<path d="M14.1299 5.59863C14.4631 5.8519 14.6631 6.24514 14.6631 6.66504V13.3301C14.6631 13.6836 14.5226 14.0227 14.2727 14.2727C14.0227 14.5226 13.6836 14.6631 13.3301 14.6631H2.66602C2.31248 14.6631 1.97342 14.5226 1.72344 14.2727C1.47345 14.0227 1.33301 13.6836 1.33301 13.3301V6.66504C1.33301 6.4581 1.38119 6.254 1.47374 6.0689C1.56628 5.8838 1.70066 5.7228 1.86621 5.59863L7.19824 1.59961C7.42898 1.42656 7.70962 1.33301 7.99805 1.33301C8.28647 1.33301 8.56711 1.42656 8.79785 1.59961L14.1299 5.59863Z" stroke="#155DFC" stroke-width="1.33301" stroke-linecap="round" stroke-linejoin="round"/>
<path d="M14.6631 6.66504L8.68455 10.4641C8.47878 10.593 8.24087 10.6614 7.99805 10.6614C7.75523 10.6614 7.51732 10.593 7.31155 10.4641L1.33301 6.66504" stroke="#155DFC" stroke-width="1.33301" stroke-linecap="round" stroke-linejoin="round"/>
</g>
<defs>
<clipPath id="clip0_70_23766">
<rect width="15.9961" height="15.9961" fill="white"/>
</clipPath>
</defs>
</svg>
